<?xml version="1.0" encoding="UTF-8" standalone="no"?>
<!-- Created with Inkscape (http://www.inkscape.org/) -->

<svg
   width="420mm"
   height="594mm"
   viewBox="0 0 420 594"
   version="1.1"
   id="svg1"
   inkscape:version="1.3 (0e150ed6c4, 2023-07-21)"
   sodipodi:docname="poster.svg"
   xml:space="preserve"
   inkscape:export-filename="PROTOposterHRroodTxTRN.pdf"
   inkscape:export-xdpi="96"
   inkscape:export-ydpi="96"
   xmlns:inkscape="http://www.inkscape.org/namespaces/inkscape"
   xmlns:sodipodi="http://sodipodi.sourceforge.net/DTD/sodipodi-0.dtd"
   xmlns="http://www.w3.org/2000/svg"
   xmlns:svg="http://www.w3.org/2000/svg"><sodipodi:namedview
     id="namedview1"
     pagecolor="#505050"
     bordercolor="#eeeeee"
     borderopacity="1"
     inkscape:showpageshadow="0"
     inkscape:pageopacity="0"
     inkscape:pagecheckerboard="0"
     inkscape:deskcolor="#505050"
     inkscape:document-units="mm"
     inkscape:zoom="0.5"
     inkscape:cx="811"
     inkscape:cy="1121"
     inkscape:window-width="2560"
     inkscape:window-height="1377"
     inkscape:window-x="1912"
     inkscape:window-y="-8"
     inkscape:window-maximized="1"
     inkscape:current-layer="layer1"
     showguides="false"
     showgrid="false" /><defs
     id="defs1"><inkscape:path-effect
       effect="perspective-envelope"
       up_left_point="249.41939,509.47172"
       up_right_point="268.95496,529.69582"
       down_left_point="249.50208,594"
       down_right_point="268.95496,573.77739"
       id="path-effect89"
       is_visible="true"
       lpeversion="1"
       deform_type="perspective"
       horizontal_mirror="false"
       vertical_mirror="false"
       overflow_perspective="false" /><inkscape:path-effect
       effect="fillet_chamfer"
       id="path-effect87"
       is_visible="true"
       lpeversion="1"
       nodesatellites_param="F,0,0,1,0,7.4083333,0,1 @ F,0,0,1,0,7.4083333,0,1 @ F,0,0,1,0,7.4083333,0,1 @ F,0,0,1,0,7.4083333,0,1 | F,0,0,1,0,7.4083333,0,1 @ F,0,0,1,0,7.4083333,0,1 @ F,0,0,1,0,7.4083333,0,1 @ F,0,0,1,0,7.4083333,0,1 @ F,0,0,1,0,7.4083333,0,1 @ F,0,0,1,0,7.4083333,0,1 @ F,0,0,1,0,7.4083333,0,1 @ F,0,0,1,0,7.4083333,0,1 @ F,0,0,1,0,7.4083333,0,1 @ F,0,0,1,0,7.4083333,0,1 @ F,0,0,1,0,7.4083333,0,1 @ F,0,0,1,0,7.4083333,0,1 @ F,0,0,1,0,7.4083333,0,1 @ F,0,0,1,0,7.4083333,0,1 @ F,0,0,1,0,7.4083333,0,1 @ F,0,0,1,0,7.4083333,0,1 @ F,0,0,1,0,7.4083333,0,1 @ F,0,0,1,0,7.4083333,0,1 @ F,0,0,1,0,7.4083333,0,1 @ F,0,0,1,0,7.4083333,0,1 @ F,0,0,1,0,7.4083333,0,1 @ F,0,0,1,0,7.4083333,0,1 @ F,0,0,1,0,7.4083333,0,1 @ F,0,0,1,0,7.4083333,0,1 @ F,0,0,1,0,7.4083333,0,1 @ F,0,0,1,0,7.4083333,0,1 @ F,0,0,1,0,7.4083333,0,1 @ F,0,0,1,0,7.4083333,0,1 @ F,0,0,1,0,7.4083333,0,1 @ F,0,0,1,0,7.4083333,0,1 @ F,0,0,1,0,7.4083333,0,1 @ F,0,0,1,0,7.4083333,0,1 @ F,0,0,1,0,7.4083333,0,1 @ F,0,0,1,0,7.4083333,0,1 @ F,0,0,1,0,7.4083333,0,1 @ F,0,0,1,0,7.4083333,0,1 @ F,0,0,1,0,7.4083333,0,1 @ F,0,0,1,0,7.4083333,0,1 @ F,0,0,1,0,7.4083333,0,1 @ F,0,0,1,0,7.4083333,0,1 @ F,0,0,1,0,7.4083333,0,1 @ F,0,0,1,0,7.4083333,0,1 @ F,0,0,1,0,7.4083333,0,1 @ F,0,0,1,0,7.4083333,0,1 @ F,0,0,1,0,7.4083333,0,1 @ F,0,0,1,0,7.4083333,0,1 @ F,0,0,1,0,7.4083333,0,1 @ F,0,0,1,0,7.4083333,0,1 @ F,0,0,1,0,7.4083333,0,1 @ F,0,0,1,0,7.4083333,0,1 @ F,0,0,1,0,7.4083333,0,1 @ F,0,0,1,0,7.4083333,0,1 @ F,0,0,1,0,7.4083333,0,1"
       radius="29"
       unit="px"
       method="auto"
       mode="F"
       chamfer_steps="1"
       flexible="false"
       use_knot_distance="true"
       apply_no_radius="true"
       apply_with_radius="true"
       only_selected="false"
       hide_knots="false" /><rect
       x="434.16356"
       y="1250.9747"
       width="408.24344"
       height="156.69604"
       id="rect87" /><inkscape:path-effect
       effect="copy_rotate"
       starting_point="0,0"
       origin="115.73,422.77"
       id="path-effect75"
       is_visible="true"
       lpeversion="1.2"
       lpesatellites=""
       method="normal"
       num_copies="12"
       starting_angle="0"
       rotation_angle="30"
       gap="0"
       copies_to_360="true"
       mirror_copies="false"
       split_items="false"
       link_styles="false" /><rect
       x="1016.5227"
       y="1769.3179"
       width="570.87881"
       height="324.59167"
       id="rect70" /><inkscape:path-effect
       effect="perspective-envelope"
       up_left_point="354.17786,323.01096"
       up_right_point="506.83094,322.9617"
       down_left_point="364.48028,345.44099"
       down_right_point="476.74121,345.44097"
       id="path-effect70"
       is_visible="true"
       lpeversion="1"
       deform_type="perspective"
       horizontal_mirror="false"
       vertical_mirror="false"
       overflow_perspective="false" /><rect
       x="-3.2729724e-14"
       y="1272.6737"
       width="323.00105"
       height="183.44561"
       id="rect31" /><rect
       x="912.89662"
       y="1523.7517"
       width="675.22619"
       height="216.07633"
       id="rect14" /><rect
       x="760.28078"
       y="634.70895"
       width="411.14943"
       height="470.13475"
       id="rect4" /><inkscape:path-effect
       effect="perspective-envelope"
       up_left_point="220.60754,103.51001"
       up_right_point="508.7347,36.700444"
       down_left_point="220.70179,164.31486"
       down_right_point="529.61509,164.31486"
       id="path-effect1"
       is_visible="true"
       lpeversion="1"
       deform_type="perspective"
       horizontal_mirror="false"
       vertical_mirror="false"
       overflow_perspective="false" /><inkscape:path-effect
       effect="perspective-envelope"
       up_left_point="205.98215,84.484465"
       up_right_point="420,43.562301"
       down_left_point="200.03858,139.71803"
       down_right_point="420,67.857565"
       id="path-effect6"
       is_visible="true"
       lpeversion="1"
       deform_type="perspective"
       horizontal_mirror="false"
       vertical_mirror="false"
       overflow_perspective="false" /><inkscape:path-effect
       effect="perspective-envelope"
       up_left_point="0,0"
       up_right_point="1587.4016,0"
       down_left_point="0,481.67684"
       down_right_point="1587.4016,164.64492"
       id="path-effect5"
       is_visible="true"
       lpeversion="1"
       deform_type="perspective"
       horizontal_mirror="false"
       vertical_mirror="false"
       overflow_perspective="false" /><rect
       x="0"
       y="0"
       width="1587.4016"
       height="549.46227"
       id="rect5" /><rect
       x="0"
       y="33.100137"
       width="1347.8376"
       height="144.3166"
       id="rect3" /><rect
       x="912.89661"
       y="1523.7517"
       width="591.32888"
       height="255.63606"
       id="rect14-9" /></defs><g
     inkscape:label="Layer 1"
     inkscape:groupmode="layer"
     id="layer1"
     style="display:inline"><rect
       style="display:inline;fill:#d30f4c;fill-opacity:1;stroke:none;stroke-width:26.2426"
       id="rect2"
       width="420"
       height="594"
       x="-1.0658141e-14"
       y="7.4843845e-14"
       inkscape:label="Paper" /><path
       style="fill:#ffffff;fill-opacity:1;stroke:none;stroke-width:0.250586px;stroke-linecap:butt;stroke-linejoin:miter;stroke-opacity:1"
       d="m 161.16583,413.37647 61.72102,-29.50375 v -90.7964 h 21.10833 V 437.72903 L 223.2674,413.37648 Z"
       id="path67"
       sodipodi:nodetypes="ccccccc" /><path
       style="fill:#ffffff;fill-opacity:1;stroke:none;stroke-width:0.264583px;stroke-linecap:butt;stroke-linejoin:miter;stroke-opacity:1"
       d="m 242.13763,434.86236 26.81733,82.63258 v -49.36292 l -26.81733,-82.01639 z"
       id="path68" /><path
       id="path68-1"
       style="fill:#ffffff;fill-opacity:1;stroke:none;stroke-width:0.110226px;stroke-linecap:butt;stroke-linejoin:miter;stroke-opacity:1"
       d="m 326.08585,434.86236 v -48.74675 h -83.94822 -12.54409 v 18.31556 l 12.54409,30.43119 z"
       sodipodi:nodetypes="ccccccc" /><path
       id="rect27"
       style="display:inline;fill:#ffffff;fill-opacity:1;stroke:none;stroke-width:1.43798"
       inkscape:label="Sensor underbox"
       d="M 158.88798,184.1655 0,231.09442 v 65.90554 l 83.158232,-0.22634 v 0.0196 h 29.160498 v -72.29377 l 12.54858,12.21269 z m -11.44065,64.09118 -18.96525,9.64386 v 38.89271 h 132.47667 v -48.53657 z" /><path
       id="path2"
       style="display:inline;fill:#fbfbfb;fill-opacity:1;stroke:none;stroke-width:0.296533px;stroke-linecap:butt;stroke-linejoin:miter;stroke-opacity:1"
       inkscape:label="titlebackground"
       d="m 0,0 v 124.96653 l 34.017045,-6.68538 z m 18.111556,0 23.788729,94.441781 0.706933,7.609869 c 0.07841,-1.77968 0.352535,-4.398312 0.822172,-7.852232 L 65.350016,0 Z M 79.570337,0 50.616032,115.01882 110.55294,103.23918 V 0 Z m 42.806173,0 v 100.91529 l 32.52205,-6.391344 c -1.56155,-0.849771 -2.36834,-2.465993 -2.36834,-4.889107 V 43.520858 c 0,-4.650458 2.90262,-7.194135 8.60516,-7.623308 l 22.98671,-1.730126 c 0.63105,-0.04749 1.22201,-0.05841 1.77302,-0.03307 3.85713,0.177376 5.75779,2.138953 5.75779,5.880261 v 19.865454 l -2.99568,3.08715 -26.24233,3.676261 v 21.28759 l 20.5419,-3.797184 v -10.29963 l 8.69611,-1.410767 v 9.989571 c 0,2.19302 -0.66395,3.946437 -1.98127,5.276681 l 16.31063,-3.205489 v 5.17e-4 l 9.8919,-1.891875 c -1.18962,-0.776919 -1.80299,-2.205183 -1.80299,-4.318082 v -40.26938 c 0,-4.061083 2.21505,-6.25841 6.57686,-6.586678 l 17.7152,-1.333252 c 3.91932,-0.294968 5.85029,1.445877 5.85029,5.218286 v 17.526579 l -2.33009,2.67994 -20.2551,2.838069 v 18.637106 l 15.83159,-2.92592 v -9.06663 l 6.7536,-1.09554 v 8.813415 c 0,3.772412 -1.93097,6.043074 -5.85029,6.82284 l -17.7152,3.524332 c -1.864,0.370851 -3.31116,0.264818 -4.38578,-0.263033 l 9.5157,37.940834 0.0884,3.28559 c 0.12084,-0.79493 0.39057,-1.98045 0.80873,-3.55327 l 16.40159,-43.076441 8.16125,-1.560629 -21.08346,52.68877 28.73468,-9.19582 c -0.86326,-0.27651 -1.2785,-0.92657 -1.19321,-1.98902 l 1.81177,-22.565551 c 0.18045,-2.247744 2.38124,-3.880215 6.52467,-4.882389 l 16.66255,-4.030245 c 0.91276,-0.220766 1.70502,-0.349296 2.37815,-0.386023 2.01935,-0.110186 2.96495,0.607244 2.86287,2.146639 l -0.63613,9.591663 -2.27273,1.920296 -19.21382,5.4932 -0.80253,10.45725 15.1598,-4.79816 0.35036,-5.0493 6.37429,-1.91875 -0.32401,4.88807 c -0.0675,1.01855 -0.56777,1.92623 -1.47071,2.7342 l 11.66905,-3.73465 1.53893,-25.120432 5.83117,-1.410767 -0.0408,0.695565 c 1.89039,-0.629805 3.77084,-1.263445 5.64152,-1.900659 2.20112,-0.731194 4.00197,-1.264643 5.41672,-1.606104 0.72303,-0.1745 1.3516,-0.271778 1.88619,-0.291455 1.60372,-0.05903 2.36242,0.578113 2.29495,1.907894 l -0.26975,5.313888 -5.18366,1.396814 0.26768,-5.017265 -10.20403,2.776058 -1.24695,21.357873 22.06119,-7.060038 1.72289,-36.241199 -0.11266,0.02222 V 28.178125 l -9.63817,1.19786 v 34.565332 l -4.58731,0.912606 V 29.463835 l -10.55285,1.296045 v 36.193139 l -5.07204,1.009241 V 25.708508 l 5.07204,-0.381889 v 1.154969 c 1.9422,-0.436401 3.86184,-0.881414 5.75986,-1.335836 2.28263,-0.507604 4.14554,-0.813426 5.60172,-0.921908 1.42007,-0.105792 2.45942,0.322424 3.12591,1.281576 1.91508,-0.450114 3.79645,-0.90738 5.64462,-1.372009 2.39476,-0.55523 4.18321,-0.8747 5.38571,-0.964283 2.33529,-0.173971 3.49023,1.160486 3.49023,4.001307 v 33.485294 l 0.68626,-0.131258 -0.64802,14.359847 c 1.87023,-0.609671 3.71433,-1.211144 5.533,-1.804024 2.26655,-0.743971 4.01599,-1.263396 5.26892,-1.565796 2.40544,-0.580564 3.56101,-0.06482 3.50005,1.540991 l -0.71934,18.95905 7.67809,-2.457215 c -0.57975,-0.199858 -0.87387,-0.693219 -0.84543,-1.515153 l 0.65319,-18.877917 3.90054,-0.943095 -0.59428,18.202506 8.4491,-2.832385 0.49454,-17.389636 3.52692,-0.853178 -0.51677,19.38693 5.88543,-1.883606 0.44907,-18.910473 3.25458,-0.787032 -0.41186,18.643823 4.36924,-1.398364 0.0186,-0.928109 8.36176,-17.146757 -7.19181,1.813326 0.0434,-2.23914 10.55646,-2.553332 -0.0155,1.107942 -8.08478,16.752983 7.88376,-2.489771 -0.0279,1.98851 5.21519,-1.668632 c -0.82862,0.0135 -1.24553,-0.469418 -1.23352,-1.462444 l 0.15968,-13.196093 c 0.016,-1.32104 0.78119,-2.163812 2.27841,-2.525944 l 6.17327,-1.493449 c 0.34655,-0.08382 0.64927,-0.117755 0.90795,-0.10232 0.77611,0.0463 1.15771,0.539152 1.15136,1.47743 l -0.0393,5.833235 -0.83664,1.02371 -7.11429,2.033985 -0.0667,6.157764 5.56297,-1.760617 0.0238,-3.029789 2.40554,-0.723987 -0.0202,2.957959 c -0.007,1.026723 -0.48803,1.77241 -1.40354,2.266529 l 5.3697,-1.718242 0.0754,-15.870866 2.30684,-0.558105 -0.002,0.433049 c 0.88725,-0.322998 1.77212,-0.649225 2.65358,-0.979269 1.05968,-0.382476 1.92229,-0.653423 2.59364,-0.815454 0.29739,-0.07178 0.55728,-0.09954 0.7798,-0.0832 0.66751,0.04904 0.9989,0.494201 0.9989,1.335319 V 43.395801 l -2.11976,0.421679 V 19.906795 l -4.81728,0.664559 v 24.204724 l -2.25723,0.449068 V 17.107483 l 2.25723,-0.170016 v 0.772563 c 0.87032,-0.258488 1.73919,-0.524748 2.60708,-0.798918 1.0456,-0.304661 1.89871,-0.480664 2.56366,-0.5302 1.18049,-0.08794 1.7663,0.875808 1.7663,2.89078 V 0 Z m 83.60575,84.484766 -25.22223,59.842854 39.30302,-12.57804 z M 369.15008,7.2150635 v 5.7443525 l -3.27939,0.15813 V 7.3029134 Z m 33.32303,10.5197715 c 1.36739,-0.10291 2.04535,0.964688 2.04535,3.201872 v 10.39368 l -0.81752,1.510502 -6.9448,0.973068 v 10.800374 l 5.40329,-0.998389 v -5.339725 l 2.35903,-0.382406 v 5.226554 c 0,2.237185 -0.67796,3.490512 -2.04535,3.762561 l -6.04563,1.203028 c -1.45555,0.289591 -2.19005,-0.732389 -2.19005,-3.06803 V 21.858097 c 0,-2.335642 0.7345,-3.558964 2.19005,-3.66851 z m -14.84096,1.116727 v 1.974557 l -7.63571,26.623698 7.63571,-1.403532 v 3.789433 l -11.13007,2.214335 v -2.028817 l 7.81916,-27.081034 -6.982,0.630969 v -3.944979 z m -18.53013,1.394747 v 33.276005 l -3.18224,0.633037 v -33.66978 z m 33.05741,0.841809 -5.40329,0.482658 v 8.990666 l 5.40329,-0.684196 z m -45.4365,0.08992 v 34.807178 l -3.48351,0.692981 v -0.977718 c -1.44306,0.549084 -2.89189,1.089525 -4.34599,1.621607 -1.78691,0.650117 -3.2834,1.097301 -4.48034,1.336352 -2.07486,0.414387 -3.12333,-0.735054 -3.12333,-3.451986 V 22.339205 l 3.78013,-0.28422 v 31.815112 l 8.16953,-1.791105 V 21.440035 Z M 279.62531,26.7069 c 3.09933,-0.230888 4.62917,1.289396 4.62917,4.558378 v 9.762195 l -5.52679,0.640788 v -9.183419 l -10.81329,1.353406 v 39.815657 l -6.14692,1.223181 v -46.55323 l 6.14692,-0.462505 v 1.270724 c 1.98961,-0.468635 3.97291,-0.949048 5.9495,-1.440739 2.33236,-0.545393 4.24871,-0.871745 5.76141,-0.984436 z m -42.16539,9.10022 -15.83159,1.4149 v 15.513782 l 15.83159,-2.004529 z m -54.50313,4.87102 -20.5419,1.836064 v 17.719332 l 20.5419,-2.601392 z m 234.90556,14.343828 -4.89376,1.36219 -0.0491,13.645679 4.92838,-1.577165 z m -41.09413,0.813387 -0.0708,3.215307 -3.34553,0.747758 0.0775,-3.264917 z m 27.55129,2.466516 -5.52266,1.389062 -0.0553,5.087028 5.53868,-1.532723 z m -63.71343,16.197461 -10.07122,2.724381 -0.87798,19.45256 10.19059,-3.2613 z m 22.79965,11.167793 c -0.67891,0.289095 -1.36671,0.576318 -2.04949,0.864547 l 2.04328,-0.654224 z m -81.76814,3.479891 -14.92467,3.752743 -0.65939,8.595341 15.0151,-4.155302 z" /><g
       id="g13"
       transform="translate(0.65410978,-16.990025)"
       style="display:inline;stroke:#000000;stroke-width:0;stroke-dasharray:none;stroke-opacity:1"
       inkscape:label="context"><rect
         style="fill:#ffffff;fill-opacity:1;stroke:#000000;stroke-width:0;stroke-dasharray:none;stroke-opacity:1"
         id="rect1"
         width="177.83774"
         height="186.36255"
         x="241.94514"
         y="167.66023"
         ry="0" /></g><path
       style="font-size:77.5293px;line-height:1.25;font-family:'Agency FB';-inkscape-font-specification:'Agency FB';display:inline;fill:#ffffff;stroke-width:3.23038"
       d="m 240.96487,159.52702 c 0.0172,1.40653 -0.34031,2.55919 -1.07013,3.45352 -0.72667,0.89049 -1.64919,1.3343 -2.7632,1.3343 h -13.04776 c -1.00432,0 -1.81956,-0.41709 -2.44871,-1.24775 -0.62563,-0.826 -0.93814,-1.89084 -0.94017,-3.19664 l -0.0809,-52.17588 c -0.002,-1.23346 0.298,-2.30682 0.90144,-3.22388 0.60571,-0.92052 1.39239,-1.49407 2.36364,-1.71928 l 12.59664,-2.920847 c 1.07364,-0.248951 1.97197,-0.0419 2.69198,0.625577 0.72432,0.67147 1.09617,1.66944 1.11233,2.99229 l 0.18158,14.86982 -4.6825,0.76353 -0.13714,-14.15226 -10.9069,2.33606 0.1967,52.04608 11.23513,-0.21088 -0.15637,-16.13759 4.74758,-0.36512 z m 30.30707,-0.60877 c 0.10122,3.59434 -1.4533,5.39661 -4.61496,5.39661 h -13.27772 c -2.81335,0 -4.2276,-1.67432 -4.28268,-5.01415 l -0.53585,-32.49431 c -0.053,-3.21543 1.27298,-5.01632 4.01608,-5.41655 l 12.93029,-1.88659 c 3.07507,-0.44866 4.68426,1.04411 4.78143,4.49466 z m -5.58202,-0.0909 -0.85624,-33.94335 -11.37909,1.46411 0.62478,32.68656 z m 42.92527,5.4875 h -6.98925 l -1.9282,-43.81589 -14.04262,2.18943 1.51617,41.62646 h -6.16713 l -1.5547,-46.84584 5.98376,-0.87306 0.0471,1.29191 c 2.39052,-0.66246 4.83067,-1.35293 7.32183,-2.07212 3.07888,-0.84337 5.6602,-1.42066 7.72056,-1.72309 3.75175,-0.5507 5.74665,1.01518 5.92317,4.7178 z m 33.1645,0 h -11.77161 c -4.45369,0 -6.75717,-2.10099 -6.98925,-6.28911 l -2.23541,-40.34062 -6.48149,0.83395 -0.31605,-6.08907 6.45415,-0.94169 -0.87873,-15.85784 7.42657,-1.412267 0.96239,16.174307 10.22345,-1.49164 0.42248,6.49231 -10.26976,1.32138 2.43661,40.95079 10.57166,-0.18877 z m 51.42227,-7.49958 c 0.46144,4.99315 -2.38047,7.49958 -8.39922,7.49958 h -24.00386 c -5.21711,0 -7.93647,-2.2715 -8.25775,-6.79829 l -3.10498,-43.74907 c -0.30521,-4.30039 1.99847,-6.80141 7.00379,-7.53171 l 22.97859,-3.35267 c 5.74861,-0.83875 8.89939,1.08356 9.33547,5.80225 l 2.05563,22.24334 -3.33765,3.28156 -27.598,1.93623 1.61501,21.33853 21.34155,-0.36159 -0.99281,-11.4196 10.29554,-0.45249 z m -12.902,-28.7995 -1.57862,-18.15776 -20.63467,2.67328 1.30806,17.28301 z m 85.91131,36.29908 h -14.7761 l -19.97803,-27.64349 -12.76179,27.64349 h -11.8221 l -0.0272,-0.27442 17.03325,-34.96745 -22.23092,-29.433295 11.66408,-1.701837 16.49284,22.511132 12.16196,-26.691986 13.28029,-1.937648 0.0371,0.28673 -17.73504,35.644764 z m 63.40382,0 h -25.74393 c -9.54222,0 -14.62534,-3.05681 -15.49339,-9.14111 l -8.27315,-57.987972 -13.32813,1.714888 -1.1627,-8.593791 13.23394,-1.930887 -3.19975,-22.427604 15.3689,-2.922616 3.49245,23.065086 21.78656,-3.178751 1.54111,9.418726 -21.9551,2.824894 8.99426,59.400597 23.07481,-0.41203 z"
       id="text1"
       transform="matrix(0.31517296,0,0,0.36840504,253.91762,91.112552)"
       aria-label="Context"
       inkscape:original-d="m 326.32167,139.53432 q 0,1.85495 -1.21139,3.02848 -1.2114,1.17354 -3.06635,1.17354 h -15.25601 q -1.85495,0 -3.02849,-1.17354 -1.17354,-1.17353 -1.17354,-3.02848 V 88.693571 q 0,-1.854949 1.17354,-3.028488 1.17354,-1.173539 3.02849,-1.173539 h 15.25601 q 1.85495,0 3.06635,1.173539 1.21139,1.173539 1.21139,3.028488 v 13.779619 h -5.29985 V 89.147844 h -13.17393 v 49.932196 h 13.17393 v -14.5746 h 5.29985 z m 29.75489,-0.0757 q 0,4.27774 -4.27773,4.27774 h -12.64394 q -4.23989,0 -4.23989,-4.27774 v -28.2785 q 0,-4.27774 4.23989,-4.27774 h 12.64394 q 4.27773,0 4.27773,4.27774 z m -5.03486,-0.15142 v -27.97566 h -11.09183 v 27.97566 z m 34.4112,4.42916 h -5.03486 v -32.32911 l -11.09184,0.30285 v 32.02626 h -5.03486 v -36.83398 h 5.03486 v 1.02211 q 2.95278,-0.37856 5.94341,-0.79498 3.63418,-0.45427 5.98126,-0.45427 4.20203,0 4.20203,4.12631 z m 21.3887,0 h -7.15481 q -4.23988,0 -4.23988,-4.27774 v -28.12708 h -4.42916 v -4.42916 h 4.42916 V 95.431957 h 4.95915 v 11.470403 h 6.43554 v 4.42916 h -6.43554 v 27.97566 h 6.43554 z m 27.02925,-4.27774 q 0,4.27774 -4.23988,4.27774 h -12.11395 q -4.23989,0 -4.23989,-4.27774 v -28.2785 q 0,-4.27774 4.23989,-4.27774 h 12.11395 q 4.23988,0 4.23988,4.27774 v 13.24963 l -1.70352,1.77924 h -14.00676 v 13.32535 h 10.82685 v -6.73839 h 4.88343 z m -4.88343,-17.26238 V 111.1044 h -10.82685 v 11.09184 z m 33.19979,21.54012 h -5.11057 l -6.2084,-14.5746 -6.28411,14.5746 h -4.95915 v -0.15142 l 8.59333,-18.77663 -8.06335,-17.90593 h 5.11058 l 5.67841,13.51462 5.82984,-13.51462 h 4.88344 v 0.15142 l -8.06335,17.60309 z m 18.92806,0 h -7.1548 q -4.23989,0 -4.23989,-4.27774 v -28.12708 h -4.42916 v -4.42916 h 4.42916 V 95.431957 h 4.95915 v 11.470403 h 6.43554 v 4.42916 h -6.43554 v 27.97566 h 6.43554 z"
       inkscape:path-effect="#path-effect1"
       inkscape:label="Context title" /><text
       xml:space="preserve"
       style="font-size:30.5968px;line-height:1.25;font-family:Arial;-inkscape-font-specification:Arial;display:inline;stroke-width:0.358556"
       x="330.65549"
       y="275.76428"
       id="text13"
       transform="scale(0.73791361,1.3551722)"
       inkscape:label="probleem title"><tspan
         sodipodi:role="line"
         id="tspan13"
         style="font-style:normal;font-variant:normal;font-weight:normal;font-stretch:normal;font-size:30.5968px;font-family:'Agency FB';-inkscape-font-specification:'Agency FB';fill:#ffffff;fill-opacity:1;stroke-width:0.358556"
         x="330.65549"
         y="275.76428">Dat is ook het probleem!</tspan></text><path
       style="font-size:20.3152px;line-height:1.25;font-family:'Agency FB';-inkscape-font-specification:'Agency FB';fill:#ffffff;stroke-width:0.238068"
       d="m 374.05629,341.05706 c 0.0908,0.31778 -0.0245,0.57497 -0.34394,0.77293 -0.30582,0.19679 -0.74508,0.29476 -1.31916,0.29479 l -7.48566,3.6e-4 c -0.57395,2e-5 -1.08611,-0.0979 -1.53849,-0.29461 -0.45508,-0.19789 -0.75609,-0.45501 -0.90202,-0.77274 l -8.28916,-18.04683 3.15171,-0.001 7.56966,17.93022 6.63665,-4.3e-4 -5.79275,-17.93251 3.15276,-0.001 z m 13.53899,-0.0204 c 0.0607,0.72888 -0.5717,1.08743 -1.89614,1.08749 l -5.36166,2.6e-4 c -1.32417,6e-5 -2.06696,-0.35837 -2.23109,-1.08715 l -0.50306,-2.23376 2.41892,-2.3e-4 0.42113,2.21427 4.80839,-3e-4 -0.23114,-1.95427 -7.0545,-3.08651 c -0.70741,-0.30299 -1.11847,-0.70079 -1.22985,-1.1965 l -0.43708,-1.94543 c -0.21128,-0.94037 0.45095,-1.41961 1.99073,-1.41992 l 6.15303,-10e-4 c 1.54013,-3.1e-4 2.35037,0.4787 2.42918,1.41924 l 0.19424,2.31824 -2.50842,3.7e-4 -0.27127,-2.29349 -5.39503,9.8e-4 0.38754,2.03765 7.1549,3.17787 c 0.6339,0.27621 0.96851,0.64815 1.00719,1.11272 z m 13.49618,-8.6e-4 c -0.0865,0.72903 -0.78566,1.08765 -2.09886,1.08771 l -5.62748,2.7e-4 c -1.31295,7e-5 -1.97902,-0.35844 -1.99858,-1.08736 l -0.22017,-8.20459 c -0.0252,-0.9406 0.72529,-1.41996 2.25212,-1.42027 l 6.54429,-0.001 c 1.52717,-3.1e-4 2.23392,0.47883 2.1223,1.41961 l -0.48432,4.08203 -0.90904,0.51468 -6.97169,8.1e-4 -0.0278,3.62846 5.11125,-3.2e-4 0.15037,-1.78703 2.36732,-2.1e-4 z m -1.90407,-4.7803 0.29029,-3.44985 -5.74225,10e-4 -0.0264,3.44953 z m 16.7403,-0.95861 -2.54415,3.7e-4 0.66745,-2.39564 -4.93567,0.0993 -1.94368,9.12224 -2.33958,1.1e-4 1.90172,-10.71435 2.72087,-5.5e-4 -0.0733,0.34421 c 0.91518,-0.0849 1.84023,-0.17421 2.77534,-0.268 1.11704,-0.1026 2.03853,-0.15408 2.76222,-0.15423 1.50207,-3e-4 2.10775,0.46302 1.82222,1.37333 z m 17.77288,5.73684 c -0.44235,0.72939 -1.32302,1.08819 -2.64917,1.08825 l -5.36864,2.6e-4 c -1.32591,6e-5 -1.82229,-0.35862 -1.48366,-1.08791 l 1.03793,-2.23538 2.42223,-2.3e-4 -1.10657,2.21588 4.81477,-3e-4 1.11744,-1.95569 -4.93338,-3.08891 c -0.49923,-0.30323 -0.63629,-0.70135 -0.40566,-1.19747 l 0.90511,-1.94709 c 0.43752,-0.9412 1.43146,-1.42086 2.97359,-1.42117 l 6.16234,-0.001 c 1.54247,-3.1e-4 2.02313,0.47912 1.45275,1.42049 l -1.40585,2.3202 -2.51204,3.8e-4 1.31157,-2.29544 -5.40306,9.8e-4 -1.01843,2.03938 4.97086,3.1804 c 0.44407,0.27642 0.52238,0.64864 0.24043,1.11356 z m 9.21762,1.08768 -3.32804,1.6e-4 c -1.31469,6e-5 -1.72946,-0.35869 -1.23632,-1.08813 l 5.51787,-8.16184 -2.34991,4.3e-4 0.948,-1.47037 2.396,-4.8e-4 2.76531,-4.09035 2.82649,-7.4e-4 -2.90891,4.09055 3.48192,-7.1e-4 -1.11272,1.47058 -3.41491,6.2e-4 -5.7765,8.12297 3.04484,-1.9e-4 z m 13.87585,-1.08915 c -0.69454,0.72965 -1.69969,1.08857 -3.02672,1.08863 l -5.8829,2.9e-4 c -1.31501,6e-5 -1.68465,-0.35874 -1.09943,-1.08828 l 6.58773,-8.21235 c 0.75533,-0.9416 1.90492,-1.42147 3.43454,-1.42178 l 6.84309,-0.001 c 1.54364,-3.1e-4 1.85876,0.47934 0.96229,1.42112 z m -2.34573,-0.0391 7.44454,-8.12488 -5.88752,10e-4 -6.80635,8.12415 z m 21.93346,-5.70516 -2.54858,3.7e-4 2.66497,-2.39807 -5.02656,0.0994 -9.54761,9.13078 -2.34327,1.1e-4 10.83205,-10.72458 2.72585,-5.5e-4 -0.36031,0.34458 c 0.98744,-0.085 1.98846,-0.1744 3.00329,-0.26829 1.20441,-0.10272 2.17035,-0.15425 2.89538,-0.1544 1.50482,-3.1e-4 1.72535,0.46352 0.68066,1.3748 z m 19.16615,-3.89711 -18.38891,10.65291 -5.95746,3.3971 h -2.19217 l 5.85558,-3.39699 8.29766,-10.65053 2.80887,-5.6e-4 -7.54626,8.70445 14.39508,-8.70583 z"
       id="text13-6"
       inkscape:label="user story title"
       transform="matrix(0.73791361,0,0,1.3551722,2.1166667,0)"
       aria-label="User story"
       inkscape:path-effect="#path-effect70"
       inkscape:original-d="m 398.61201,340.6796 q 0,0.48606 -0.31742,0.79356 -0.30751,0.30751 -0.79356,0.30751 h -4.22572 q -0.48606,0 -0.79357,-0.30751 -0.3075,-0.3075 -0.3075,-0.79356 v -14.423 h 1.37881 v 14.30397 h 3.68015 V 326.2566 h 1.37881 z m 7.51901,-0.0198 q 0,1.12091 -1.12091,1.12091 h -3.02546 q -1.1209,0 -1.1209,-1.12091 v -2.19221 h 1.29946 v 2.17237 h 2.66835 v -1.92439 l -3.452,-2.82706 q -0.49597,-0.39678 -0.49597,-1.03163 v -1.60697 q 0,-1.1209 1.1209,-1.1209 h 2.98578 q 1.12091,0 1.12091,1.1209 v 1.92439 h -1.27962 v -1.90455 h -2.66835 v 1.68632 l 3.48175,2.82707 q 0.48606,0.38686 0.48606,1.05147 z m 7.48924,0 q 0,1.12091 -1.11098,1.12091 h -3.17425 q -1.11099,0 -1.11099,-1.12091 v -7.40989 q 0,-1.1209 1.11099,-1.1209 h 3.17425 q 1.11098,0 1.11098,1.1209 v 3.47184 l -0.44637,0.46622 h -3.67023 v 3.49167 h 2.83699 v -1.76567 h 1.27961 z m -1.27961,-4.5233 v -2.90643 h -2.83699 v 2.90643 z m 8.51095,-0.83324 h -1.29946 v -1.99383 l -2.43028,0.0794 v 8.39192 h -1.3193 v -9.6517 h 1.3193 v 0.26782 q 0.65469,-0.0992 1.3193,-0.20831 0.79356,-0.11903 1.31929,-0.11903 1.09115,0 1.09115,1.08123 z m 10.85197,5.35654 q 0,1.12091 -1.12091,1.12091 h -3.02545 q -1.12091,0 -1.12091,-1.12091 v -2.19221 h 1.29946 v 2.17237 h 2.66835 v -1.92439 l -3.45199,-2.82706 q -0.49598,-0.39678 -0.49598,-1.03163 v -1.60697 q 0,-1.1209 1.12091,-1.1209 h 2.98577 q 1.12091,0 1.12091,1.1209 v 1.92439 h -1.27962 v -1.90455 h -2.66835 v 1.68632 l 3.48175,2.82707 q 0.48606,0.38686 0.48606,1.05147 z m 5.56486,1.12091 h -1.87479 q -1.11099,0 -1.11099,-1.12091 v -7.37021 h -1.16059 v -1.16058 h 1.16059 v -3.00562 h 1.29946 v 3.00562 h 1.68632 v 1.16058 h -1.68632 v 7.33053 h 1.68632 z m 7.23134,-1.12091 q 0,1.12091 -1.12091,1.12091 h -3.31312 q -1.11099,0 -1.11099,-1.12091 v -7.40989 q 0,-1.1209 1.11099,-1.1209 h 3.31312 q 1.12091,0 1.12091,1.1209 z m -1.3193,-0.0397 v -7.33053 h -2.90642 v 7.33053 z m 8.52088,-5.31686 h -1.29946 v -1.99383 l -2.43029,0.0794 v 8.39192 h -1.3193 v -9.6517 h 1.3193 v 0.26782 q 0.65469,-0.0992 1.3193,-0.20831 0.79356,-0.11903 1.3193,-0.11903 1.09115,0 1.09115,1.08123 z m 7.1123,-3.17425 -2.32117,9.57234 -0.9622,3.73967 h -1.29945 l 0.97211,-3.73967 -2.38069,-9.57234 h 1.35898 l 1.64664,7.59836 1.66648,-7.59836 z" /><rect
       style="display:inline;fill:#ffffff;fill-opacity:1;stroke:#000000;stroke-width:0;stroke-dasharray:none;stroke-opacity:1"
       id="rect13"
       width="106.9202"
       height="48.74675"
       x="292.40848"
       y="386.11563"
       inkscape:label="probleem underbox" /><g
       id="g30"
       style="display:inline"
       inkscape:label="Team names"><text
         xml:space="preserve"
         style="font-size:6.35px;line-height:1.25;font-family:Arial;-inkscape-font-specification:Arial;display:inline;fill:#00ffff;fill-opacity:1;stroke:none;stroke-width:0.264583"
         x="336.94638"
         y="562.52728"
         id="text16"><tspan
           sodipodi:role="line"
           style="font-style:normal;font-variant:normal;font-weight:normal;font-stretch:normal;font-family:'Agency FB';-inkscape-font-specification:'Agency FB';fill:#00ffff;fill-opacity:1;stroke:none;stroke-width:0.264583"
           x="336.94638"
           y="562.52728"
           id="tspan17">Klaus Durkin 108158</tspan></text><text
         xml:space="preserve"
         style="font-size:6.35px;line-height:1.25;font-family:Arial;-inkscape-font-specification:Arial;display:inline;fill:#00ff00;fill-opacity:1;stroke:none;stroke-width:0.264583"
         x="336.94638"
         y="568.1427"
         id="text16-6"><tspan
           sodipodi:role="line"
           style="font-style:normal;font-variant:normal;font-weight:normal;font-stretch:normal;font-family:'Agency FB';-inkscape-font-specification:'Agency FB';fill:#00ff00;fill-opacity:1;stroke:none;stroke-width:0.264583"
           x="336.94638"
           y="568.1427"
           id="tspan17-2">Klaus Durkin 108158</tspan></text><text
         xml:space="preserve"
         style="font-size:6.35px;line-height:1.25;font-family:Arial;-inkscape-font-specification:Arial;display:inline;fill:#ff0000;fill-opacity:1;stroke:none;stroke-width:0.264583"
         x="336.94638"
         y="573.75879"
         id="text16-1"><tspan
           sodipodi:role="line"
           style="font-style:normal;font-variant:normal;font-weight:normal;font-stretch:normal;font-family:'Agency FB';-inkscape-font-specification:'Agency FB';fill:#ff0000;fill-opacity:1;stroke:none;stroke-width:0.264583"
           x="336.94638"
           y="573.75879"
           id="tspan17-7">Klaus Durkin 108158</tspan></text><text
         xml:space="preserve"
         style="font-size:6.35px;line-height:1.25;font-family:Arial;-inkscape-font-specification:Arial;display:inline;fill:#ffff00;fill-opacity:1;stroke:none;stroke-width:0.264583"
         x="336.94638"
         y="579.37427"
         id="text16-6-7"><tspan
           sodipodi:role="line"
           style="font-style:normal;font-variant:normal;font-weight:normal;font-stretch:normal;font-family:'Agency FB';-inkscape-font-specification:'Agency FB';fill:#ffff00;fill-opacity:1;stroke:none;stroke-width:0.264583"
           x="336.94638"
           y="579.37427"
           id="tspan17-2-4">Klaus Durkin 108158</tspan></text></g><text
       xml:space="preserve"
       style="font-style:normal;font-variant:normal;font-weight:normal;font-stretch:normal;font-size:31.3205px;line-height:1.25;font-family:'Agency FB';-inkscape-font-specification:'Agency FB';display:inline;fill:#ffffff;fill-opacity:1;stroke-width:1.30502"
       x="174.73241"
       y="93.25248"
       id="text18"
       transform="scale(0.58764923,1.7016954)"
       inkscape:label="Bedrijf place holder"><tspan
         sodipodi:role="line"
         id="tspan18"
         style="font-style:normal;font-variant:normal;font-weight:normal;font-stretch:normal;font-family:'Agency FB';-inkscape-font-specification:'Agency FB';fill:#ffffff;fill-opacity:1;stroke-width:1.30502"
         x="174.73241"
         y="93.25248">Bedrijf</tspan></text><text
       xml:space="preserve"
       style="font-size:31.7421px;line-height:1.25;font-family:Arial;-inkscape-font-specification:Arial;display:inline;stroke-width:0.425116"
       x="-56.734425"
       y="213.15833"
       id="text19"
       transform="rotate(-16.176456)"
       inkscape:transform-center-x="-27.646406"
       inkscape:transform-center-y="-13.409292"
       inkscape:label="Ecologen title"><tspan
         sodipodi:role="line"
         id="tspan19"
         style="font-style:normal;font-variant:normal;font-weight:normal;font-stretch:normal;font-size:31.7421px;font-family:'Agency FB';-inkscape-font-specification:'Agency FB';fill:#ffffff;stroke-width:0.425116"
         x="-56.734425"
         y="213.15833">Ecologen</tspan></text><text
       xml:space="preserve"
       style="font-size:28.8822px;line-height:1.25;font-family:Arial;-inkscape-font-specification:Arial;display:inline;stroke-width:0.386813"
       x="151.80548"
       y="231.84572"
       id="text19-1"
       transform="matrix(0.9687497,0.00235976,-0.00221459,1.032253,0,0)"
       inkscape:transform-center-x="-27.738649"
       inkscape:transform-center-y="-6.8753657"
       inkscape:label="Sensor title"><tspan
         sodipodi:role="line"
         id="tspan19-0"
         style="font-style:normal;font-variant:normal;font-weight:normal;font-stretch:normal;font-size:28.8822px;font-family:'Agency FB';-inkscape-font-specification:'Agency FB';fill:#ffffff;stroke-width:0.386813"
         x="151.80548"
         y="231.84572">Sensoren</tspan></text><text
       xml:space="preserve"
       style="font-size:39.7511px;line-height:1.25;font-family:Arial;-inkscape-font-specification:Arial;display:inline;stroke-width:0.532378"
       x="7.4334106"
       y="335.75986"
       id="text19-1-0"
       transform="matrix(0.9687497,0.00235976,-0.00221459,1.032253,0,0)"
       inkscape:transform-center-x="-38.177198"
       inkscape:transform-center-y="-9.4626873"
       inkscape:label="Sensor title"><tspan
         sodipodi:role="line"
         id="tspan19-0-8"
         style="font-style:normal;font-variant:normal;font-weight:normal;font-stretch:normal;font-size:39.7511px;font-family:'Agency FB';-inkscape-font-specification:'Agency FB';fill:#ffffff;stroke-width:0.532378"
         x="7.4334106"
         y="335.75986">VPS</tspan></text><text
       xml:space="preserve"
       style="font-size:39.7511px;line-height:1.25;font-family:Arial;-inkscape-font-specification:Arial;display:inline;stroke-width:0.532378"
       x="13.585789"
       y="481.80594"
       id="text19-1-0-8"
       transform="matrix(0.9687497,0.00235976,-0.00221459,1.032253,0,0)"
       inkscape:transform-center-x="-38.177198"
       inkscape:transform-center-y="-9.4626873"
       inkscape:label="Sensor title"><tspan
         sodipodi:role="line"
         id="tspan19-0-8-9"
         style="font-style:normal;font-variant:normal;font-weight:normal;font-stretch:normal;font-size:39.7511px;font-family:'Agency FB';-inkscape-font-specification:'Agency FB';fill:#ffffff;stroke-width:0.532378"
         x="13.585789"
         y="481.80594">Grafana</tspan></text><text
       xml:space="preserve"
       style="font-size:14.1507px;line-height:1.25;font-family:Arial;-inkscape-font-specification:Arial;display:inline;stroke-width:0.189517"
       x="135.94688"
       y="318.54657"
       id="text19-1-0-3"
       transform="matrix(0.9687497,0.00235976,-0.00221459,1.032253,0,0)"
       inkscape:transform-center-x="-13.590434"
       inkscape:transform-center-y="-3.3685467"
       inkscape:label="Sensor title"><tspan
         sodipodi:role="line"
         id="tspan19-0-8-7"
         style="font-style:normal;font-variant:normal;font-weight:normal;font-stretch:normal;font-size:14.1507px;font-family:'Agency FB';-inkscape-font-specification:'Agency FB';fill:#ffffff;stroke-width:0.189517"
         x="135.94688"
         y="318.54657">Innoflux </tspan></text><text
       xml:space="preserve"
       style="font-size:14.1507px;line-height:1.25;font-family:Arial;-inkscape-font-specification:Arial;display:inline;stroke-width:0.189517"
       x="193.51805"
       y="424.9209"
       id="text19-1-0-3-8"
       transform="matrix(0.9687497,0.00235976,-0.00221459,1.032253,0,0)"
       inkscape:transform-center-x="-13.590434"
       inkscape:transform-center-y="-3.3685467"
       inkscape:label="Sensor title"><tspan
         sodipodi:role="line"
         id="tspan19-0-8-7-7"
         style="font-style:normal;font-variant:normal;font-weight:normal;font-stretch:normal;font-size:14.1507px;font-family:'Agency FB';-inkscape-font-specification:'Agency FB';fill:#ffffff;stroke-width:0.189517"
         x="193.51805"
         y="424.9209">Telegraph</tspan></text><g
       id="g31"
       inkscape:label="hr logo"
       transform="translate(-68.123771,34.660417)"><rect
         style="fill:#ffffff;fill-opacity:1;stroke:none;stroke-width:0.1;stroke-dasharray:none;stroke-opacity:1"
         id="rect30"
         width="40.318707"
         height="40.330242"
         x="447.80505"
         y="519.35315"
         ry="16.271875" /><path
         style="fill:#d30f4c;fill-opacity:1"
         d="m 453.25551,559.65372 c -0.0161,-0.0163 -0.14761,-0.0504 -0.29217,-0.0759 -1.28976,-0.22728 -2.36346,-0.78082 -3.23702,-1.66882 -0.25208,-0.25626 -0.30176,-0.31498 -0.56592,-0.6689 -0.24977,-0.33466 -0.5578,-0.88736 -0.75702,-1.35833 -0.0275,-0.065 -0.0779,-0.18291 -0.11199,-0.26201 -0.0341,-0.0791 -0.062,-0.16863 -0.062,-0.19894 0,-0.0303 -0.0167,-0.072 -0.0371,-0.0925 -0.0356,-0.0359 -0.0553,-0.10243 -0.18589,-0.62832 -0.20101,-0.80953 -0.18556,0.38243 -0.19852,-15.32193 -0.008,-9.67873 10e-4,-14.54726 0.0275,-14.57357 0.0217,-0.0217 0.0395,-0.0822 0.0395,-0.13431 0,-0.20548 0.30253,-1.28837 0.42856,-1.53399 0.0195,-0.038 0.0684,-0.13996 0.10873,-0.22662 0.3226,-0.69345 0.96894,-1.51446 1.53049,-1.94412 0.1302,-0.0996 0.27099,-0.2125 0.31287,-0.25085 0.10806,-0.099 0.5727,-0.37056 0.9456,-0.55274 0.1747,-0.0854 0.36468,-0.18009 0.42219,-0.21053 0.0575,-0.0304 0.13141,-0.0553 0.16423,-0.0553 0.0328,0 0.10985,-0.0252 0.17119,-0.056 0.0613,-0.0308 0.21789,-0.0865 0.34789,-0.1237 0.13,-0.0372 0.27181,-0.0813 0.31514,-0.0979 0.12566,-0.0483 0.61238,-0.15317 0.82726,-0.17829 0.10834,-0.0127 0.23242,-0.0397 0.27576,-0.06 0.0488,-0.0229 5.54064,-0.0321 14.43765,-0.0242 15.37683,0.0137 14.30761,8e-4 15.13799,0.18201 0.19914,0.0435 0.84372,0.25257 0.9626,0.31229 0.0387,0.0194 0.22707,0.11203 0.4186,0.20575 1.06705,0.52217 2.22924,1.713 2.65053,2.71586 0.0137,0.0325 0.0658,0.1488 0.11594,0.25844 0.11135,0.24364 0.21311,0.51567 0.24225,0.64761 0.012,0.0542 0.0362,0.11691 0.0538,0.13943 0.0395,0.0505 0.13828,0.43102 0.30123,1.16055 0.0611,0.27343 0.0669,1.57774 0.0778,17.50049 0.0118,17.20503 0.0118,17.20503 -17.41323,17.20503 -9.58379,0 -17.43828,-0.0133 -17.45442,-0.0295 z m 5.47219,-5.25473 c 1.66528,-0.46773 1.51299,-2.97539 -0.19613,-3.22959 -1.36742,-0.20338 -2.49222,1.27839 -1.8278,2.4079 0.0191,0.0325 0.0523,0.0996 0.0736,0.14918 0.23808,0.55169 1.19979,0.88331 1.9503,0.67251 z m -0.8259,-0.55369 c -0.39241,-0.10923 -0.72647,-0.65895 -0.67914,-1.11756 0.14377,-1.39295 1.9799,-1.29819 1.97176,0.10176 -0.005,0.77615 -0.56664,1.21789 -1.29262,1.0158 z m 15.53112,0.57691 c 0.92136,-0.18551 1.347,-0.734 1.34739,-1.7363 4.5e-4,-1.15308 -0.65483,-1.61611 -2.16646,-1.53087 -0.70733,0.0399 -0.63029,-0.15946 -0.63029,1.63095 0,1.75949 -0.0416,1.60227 0.4368,1.65226 0.50793,0.0531 0.68306,0.0503 1.01256,-0.016 z m -0.73697,-0.55931 c -0.32539,-0.26639 -0.0637,-2.11735 0.30093,-2.1287 0.84711,-0.0264 1.44325,0.82045 1.06177,1.50825 -0.0361,0.065 -0.0661,0.13591 -0.0668,0.15758 -0.0104,0.32755 -1.02052,0.68833 -1.2959,0.46287 z m -18.15971,0 c 0.007,-0.99332 0.0355,-0.9931 0.76424,0.006 0.42866,0.58761 0.46044,0.60309 0.9159,0.44595 0.16988,-0.0586 0.17506,-0.0447 -0.19697,-0.5304 -0.61071,-0.79734 -0.56208,-0.68939 -0.38881,-0.86309 0.83457,-0.83665 0.31906,-1.72723 -0.99981,-1.72723 -0.70908,0 -0.70908,0 -0.71939,1.55596 -0.0121,1.8334 -0.0472,1.6546 0.32422,1.6546 0.29669,0 0.29669,0 0.30062,-0.54166 z m 0.0749,-1.27044 c -0.0796,-0.0796 -0.11789,-0.64014 -0.0549,-0.80434 0.10374,-0.27034 0.723,-0.002 0.75461,0.32703 0.0388,0.40404 -0.4438,0.73325 -0.69973,0.47731 z m 7.20898,0.53181 c 0.0232,-1.48773 -0.0232,-1.35907 0.49052,-1.35907 0.45909,0 0.45492,0.003 0.45492,-0.31049 0,-0.2894 0.0389,-0.28048 -1.21923,-0.2798 -1.30402,7e-4 -1.23074,-0.0197 -1.21526,0.33776 0.0118,0.27223 0.0118,0.27223 0.40352,0.2836 0.53995,0.0157 0.49463,-0.10585 0.49463,1.32626 0,1.39379 -0.0258,1.28888 0.31347,1.27379 0.25773,-0.0115 0.25773,-0.0115 0.27743,-1.27205 z m 2.9545,0.0617 c 0,-1.52573 -0.0388,-1.41501 0.50077,-1.42923 0.4065,-0.0107 0.67067,-0.37537 0.39747,-0.54866 -0.0884,-0.0561 -2.29179,-0.0416 -2.36131,0.0155 -0.24916,0.20459 -0.014,0.56136 0.37754,0.57272 0.53995,0.0157 0.49463,-0.10585 0.49463,1.32626 0,1.3989 -0.0293,1.28203 0.32171,1.28203 0.26919,0 0.26919,0 0.26919,-1.21863 z m 3.50335,1.16274 c 0.25608,-0.30856 0.0254,-0.47583 -0.68673,-0.49793 -0.84137,-0.0261 -0.72878,0.0371 -0.72878,-0.40899 0,-0.45627 -0.0363,-0.43084 0.64999,-0.45535 0.83983,-0.03 0.87563,-0.48633 0.0394,-0.50204 -0.73514,-0.0138 -0.68939,0.0103 -0.68939,-0.36304 0,-0.39022 -0.0335,-0.37156 0.70908,-0.39551 0.611,-0.0197 0.88845,-0.26531 0.56604,-0.50107 -0.0873,-0.0638 -1.712,-0.0724 -1.82921,-0.01 -0.094,0.0503 -0.12157,3.04956 -0.0289,3.14221 0.0745,0.0745 1.93618,0.0665 1.99853,-0.009 z m 1.35751,-0.006 c 0.0131,-0.0343 0.0239,-0.31791 0.0239,-0.6303 0,-0.82394 0.0351,-0.81765 0.7316,0.13125 0.22663,0.30875 0.42508,0.561 0.44098,0.56057 0.15365,-0.004 0.53833,-0.0825 0.58149,-0.11828 0.0451,-0.0374 -0.0172,-0.14139 -0.34974,-0.58367 -0.22252,-0.29598 -0.41721,-0.55928 -0.43265,-0.5851 -0.0161,-0.0269 0.0201,-0.0962 0.0847,-0.16232 0.54615,-0.5587 0.48966,-1.35799 -0.11904,-1.68465 -0.16171,-0.0868 -1.38314,-0.13371 -1.52359,-0.0585 -0.10041,0.0537 -0.13484,3.04742 -0.0362,3.14609 0.0748,0.0748 0.56878,0.0624 0.5985,-0.015 z m 0.0891,-1.74304 c -0.0934,-0.10318 -0.0958,-0.81384 -0.003,-0.84949 0.47423,-0.18197 0.89982,0.261 0.64783,0.67429 -0.13278,0.21776 -0.51296,0.32104 -0.64494,0.1752 z m 5.92803,1.61823 c 0.0439,-0.10292 0.10494,-0.24298 0.13566,-0.31125 0.0307,-0.0683 0.0559,-0.13723 0.0559,-0.15323 0,-0.10168 0.16189,-0.13382 0.68007,-0.13502 0.59453,-10e-4 0.56012,-0.0257 0.77794,0.55026 0.0861,0.22767 0.10235,0.23636 0.44197,0.23636 0.37193,0 0.36592,0.0479 0.084,-0.66969 -0.0979,-0.24916 -0.20541,-0.52393 -0.23898,-0.6106 -0.0336,-0.0867 -0.0838,-0.21075 -0.11152,-0.27575 -0.0278,-0.065 -0.0811,-0.19795 -0.11857,-0.29545 -0.0374,-0.0975 -0.0923,-0.23313 -0.12181,-0.3014 -0.0296,-0.0683 -0.0537,-0.14893 -0.0537,-0.17924 0,-0.0303 -0.015,-0.072 -0.0333,-0.0925 -0.0183,-0.0206 -0.0748,-0.15265 -0.12565,-0.29348 -0.16567,-0.45923 -0.19245,-0.49072 -0.42887,-0.50445 -0.22378,-0.013 -0.39704,0.0631 -0.39704,0.17428 0,0.0341 -0.025,0.10901 -0.0556,0.16652 -0.0711,0.13375 -0.1808,0.38545 -0.1808,0.41473 0,0.0124 -0.043,0.11607 -0.0955,0.23041 -0.0525,0.11434 -0.25765,0.59788 -0.45588,1.07454 -0.19823,0.47666 -0.38572,0.91371 -0.41665,0.97122 -0.0956,0.17783 -0.0778,0.19089 0.26113,0.19089 0.31736,0 0.31736,0 0.39716,-0.18712 z m 0.81197,-1.10467 c -0.33997,-0.0128 -0.38186,-0.0755 -0.25156,-0.37648 0.0884,-0.2042 0.17647,-0.43358 0.20269,-0.52791 0.0549,-0.19753 0.17029,-0.0555 0.32955,0.40566 0.18442,0.53398 0.19419,0.51662 -0.28068,0.49873 z m 2.51452,1.11452 c 0.0273,-0.0867 0.0791,-0.29939 0.1152,-0.47272 0.0361,-0.17333 0.0907,-0.41381 0.12132,-0.5344 0.0307,-0.12058 0.056,-0.27126 0.0563,-0.33484 10e-4,-0.23634 0.19068,-0.27084 0.25643,-0.0467 0.0143,0.0488 0.0598,0.16402 0.10115,0.2561 0.0413,0.0921 0.10891,0.24276 0.1502,0.33484 0.0413,0.0921 0.12991,0.28832 0.19696,0.43608 0.0671,0.14776 0.12191,0.28275 0.12191,0.29998 0,0.0172 0.0367,0.078 0.0817,0.13513 0.13073,0.1662 0.58804,0.12144 0.58804,-0.0575 0,-0.017 0.0726,-0.18712 0.16123,-0.37798 0.0887,-0.19086 0.21413,-0.46225 0.27878,-0.60308 0.24727,-0.53858 0.276,-0.5909 0.32452,-0.5909 0.0563,0 0.14408,0.26263 0.24364,0.72878 0.037,0.17333 0.0912,0.40256 0.12046,0.50941 0.0292,0.10685 0.0532,0.2341 0.0532,0.28279 0,0.16503 0.0972,0.21233 0.43614,0.21233 0.34305,0 0.35077,-0.007 0.27519,-0.25326 -0.0354,-0.1152 -0.0682,-0.25318 -0.22093,-0.92854 -0.0367,-0.1625 -0.0894,-0.38409 -0.11701,-0.49242 -0.0276,-0.10833 -0.0796,-0.32992 -0.11544,-0.49242 -0.0359,-0.16249 -0.0901,-0.39294 -0.12059,-0.51211 -0.0304,-0.11916 -0.0654,-0.28119 -0.0776,-0.36005 -0.0238,-0.15294 -0.086,-0.19044 -0.31579,-0.19031 -0.20096,1.1e-4 -0.18401,-0.0277 -0.70686,1.16096 -0.46168,1.04962 -0.47859,1.07196 -0.60544,0.79974 -0.12012,-0.25781 -0.20434,-0.45478 -0.20434,-0.47795 0,-0.0115 -0.0532,-0.13574 -0.11818,-0.27617 -0.065,-0.14043 -0.11818,-0.26528 -0.11818,-0.27743 0,-0.0122 -0.0418,-0.11565 -0.0928,-0.22999 -0.051,-0.11434 -0.13383,-0.30096 -0.18401,-0.4147 -0.17085,-0.38732 -0.62462,-0.30351 -0.69317,0.12802 -0.0103,0.065 -0.0429,0.21568 -0.0724,0.33485 -0.0565,0.22833 -0.13419,0.5731 -0.23961,1.06362 -0.0622,0.28938 -0.10906,0.49536 -0.23616,1.03782 -0.0866,0.36977 -0.0757,0.38646 0.24362,0.3723 0.26293,-0.0117 0.26293,-0.0117 0.31255,-0.16923 z m -21.69732,-5.2035 c 1.5978,-0.37905 1.82507,-2.48052 0.34294,-3.17102 -0.40067,-0.18667 -1.25884,-0.11453 -1.61009,0.13535 -1.53825,1.09432 -0.54813,3.46631 1.26715,3.03567 z m -0.59331,-0.56923 c -1.14236,-0.28355 -0.92843,-2.12564 0.24686,-2.12564 1.2584,0 1.35103,2.01494 0.0985,2.14242 -0.10833,0.011 -0.26374,0.003 -0.34535,-0.0168 z m 20.01422,0.56833 c 1.18597,-0.28542 1.70672,-1.5936 1.03905,-2.6102 -0.55634,-0.84708 -2.02409,-0.90841 -2.65754,-0.11105 -1.03482,1.3026 0.0355,3.10221 1.61849,2.72125 z m -0.6025,-0.57063 c -1.13366,-0.27768 -0.91108,-2.12334 0.25606,-2.12334 1.25359,0 1.34631,2.01685 0.0985,2.14215 -0.10833,0.0109 -0.26788,0.002 -0.35454,-0.0188 z m 4.4057,0.57511 c 0.12477,-0.0325 0.25463,-0.0591 0.28858,-0.0591 0.41964,0 0.97658,-0.75423 1.09523,-1.48323 0.23675,-1.4545 -1.86511,-2.35197 -2.90489,-1.24036 -1.11926,1.19658 -0.0312,3.18701 1.52108,2.78268 z m -0.51381,-0.56875 c -1.17922,-0.29112 -0.98893,-2.13355 0.21987,-2.12883 1.24814,0.005 1.34468,2.00306 0.10333,2.1385 -0.10834,0.0118 -0.25377,0.007 -0.3232,-0.01 z m -18.6053,0.53121 c 0.67887,-0.12795 0.67502,-0.12284 0.6609,-0.87676 -0.0151,-0.80674 -0.54604,-0.94294 -0.58211,-0.14932 -0.035,0.76942 -1.01855,0.80461 -1.50043,0.0537 -0.64509,-1.00529 0.68445,-2.26997 1.58232,-1.50511 0.0874,0.0744 0.1015,0.0686 0.17052,-0.0697 0.10533,-0.21113 0.12628,-0.50175 0.0382,-0.52946 -0.0406,-0.0128 -0.10593,-0.0404 -0.14505,-0.0615 -0.68453,-0.36782 -2.05268,0.0712 -2.33617,0.74973 -0.62434,1.49426 0.44421,2.70278 2.11185,2.38847 z m 5.41658,0.007 c 1.08286,-0.33434 1.00019,-1.73231 -0.11481,-1.94149 -0.0782,-0.0147 -0.15183,-0.0424 -0.1637,-0.0616 -0.0119,-0.0192 -0.0578,-0.0349 -0.10199,-0.0349 -0.0968,0 -0.34827,-0.24112 -0.34827,-0.33394 0,-0.3283 0.89101,-0.41054 1.08297,-0.1 0.0927,0.15001 0.29579,-0.22203 0.29579,-0.54188 0,-0.21443 -1.14709,-0.3162 -1.49694,-0.1328 -0.3761,0.19715 -0.58962,0.59815 -0.51686,0.97069 0.0894,0.45794 0.21283,0.57206 0.8714,0.80597 0.0758,0.0269 0.17892,0.0583 0.2291,0.0698 0.29875,0.0681 0.46251,0.45378 0.26962,0.63499 -0.21505,0.20203 -0.54326,0.18418 -1.02087,-0.0555 -0.33115,-0.1662 -0.3571,-0.15306 -0.39881,0.20183 -0.0312,0.26533 -0.002,0.32562 0.19666,0.40072 0.42193,0.15984 0.9238,0.20855 1.21671,0.11812 z m 3.38783,-0.004 c 0.51153,-0.11096 0.65211,-0.2542 0.51413,-0.52381 -0.0314,-0.0613 -0.0663,-0.14255 -0.0776,-0.18047 -0.0221,-0.0744 -0.16019,-0.0943 -0.20059,-0.029 -0.0891,0.14419 -0.78627,0.2159 -1.02918,0.10586 -0.37134,-0.16822 -0.52531,-0.35327 -0.62514,-0.75135 -0.0524,-0.20882 -0.0578,-0.29143 -0.0239,-0.36578 0.0241,-0.0528 0.0438,-0.13137 0.0438,-0.17455 0,-0.59786 1.05248,-0.978 1.54391,-0.55762 0.0992,0.0849 0.15102,0.0473 0.23328,-0.16924 0.10871,-0.28624 0.0995,-0.4046 -0.034,-0.4365 -0.0596,-0.0142 -0.12854,-0.0417 -0.15324,-0.0611 -0.48684,-0.38147 -1.77252,0.0654 -2.09658,0.72876 -0.68928,1.41093 0.36608,2.74858 1.90513,2.41472 z m -17.46205,-0.68458 c 0.0108,-0.65984 0.0108,-0.65984 0.59637,-0.67077 0.74905,-0.014 0.69472,-0.0691 0.69472,0.70514 0,0.62547 0,0.62547 0.31514,0.62547 0.31515,0 0.31515,0 0.31515,-1.59709 0,-1.59709 0,-1.59709 -0.3053,-1.58558 -0.3053,0.0115 -0.3053,0.0115 -0.3149,0.54331 -0.0142,0.78873 0.0621,0.70908 -0.67953,0.70908 -0.62854,0 -0.62854,0 -0.63939,-0.62044 -0.0109,-0.62045 -0.0109,-0.62045 -0.31615,-0.63195 -0.3053,-0.0115 -0.3053,-0.0115 -0.3053,1.58558 0,1.59709 0,1.59709 0.3142,1.59709 0.31419,0 0.31419,0 0.32499,-0.65984 z m 12.08486,0.40469 c 0,-0.25515 0,-0.25515 -0.69923,-0.2659 -0.69923,-0.0108 -0.69923,-0.0108 -0.71061,-0.37912 -0.0153,-0.49565 -0.0376,-0.4786 0.6268,-0.4786 0.54668,0 0.54668,0 0.54668,-0.2553 0,-0.30684 0.0313,-0.29253 -0.66969,-0.30626 -0.88117,-0.0172 -0.75218,-0.67121 0.13788,-0.69903 1.2303,-0.0384 0.93793,-0.53181 -0.31515,-0.53181 -0.94544,0 -0.94544,0 -0.95573,1.58559 -0.0103,1.58558 -0.0103,1.58558 1.01438,1.58558 1.02467,0 1.02467,0 1.02467,-0.25515 z m 7.33606,-0.40469 c 0.0108,-0.65984 0.0108,-0.65984 0.61841,-0.67075 0.7326,-0.0132 0.6713,-0.0779 0.67207,0.71014 6e-4,0.62045 6e-4,0.62045 0.31575,0.62045 0.31514,0 0.31514,0 0.31514,-1.59709 0,-1.59709 0,-1.59709 -0.3053,-1.58558 -0.30529,0.0115 -0.30529,0.0115 -0.32499,0.6221 -0.0197,0.6106 -0.0197,0.6106 -0.64999,0.6106 -0.63029,0 -0.63029,0 -0.64999,-0.6106 -0.0197,-0.6106 -0.0197,-0.6106 -0.33484,-0.6106 -0.27454,0 -0.53397,2.55605 -0.31686,3.12183 0.16642,0.43368 0.65083,-0.014 0.6606,-0.6105 z m 12.39195,0.39393 c -0.0116,-0.2659 -0.0116,-0.2659 -0.70103,-0.2856 -0.68938,-0.0197 -0.68938,-0.0197 -0.69977,-1.30921 -0.0119,-1.47325 0.0268,-1.34714 -0.40535,-1.32262 -0.18882,0.0107 -0.37568,2.71858 -0.21627,3.134 0.0921,0.23993 2.03331,0.032 2.02242,-0.21657 z m -25.43068,-7.25822 c 0.15032,-0.0867 0.28273,-0.15757 0.29424,-0.15757 0.0115,0 0.12075,-0.06 0.24275,-0.13328 0.122,-0.0733 0.3342,-0.19296 0.47155,-0.2659 0.36784,-0.19536 0.6507,-0.34987 1.06994,-0.58445 0.20583,-0.11517 0.46288,-0.25791 0.57121,-0.31719 0.10833,-0.0593 0.36559,-0.20301 0.57169,-0.31939 0.2061,-0.11637 0.45427,-0.25239 0.5515,-0.30227 0.0972,-0.0499 0.23883,-0.12759 0.31466,-0.1727 0.0758,-0.0451 0.25311,-0.14406 0.39394,-0.21988 0.4665,-0.25117 0.68774,-0.37507 0.83632,-0.46838 0.0808,-0.0507 0.15678,-0.0923 0.16879,-0.0923 0.012,0 0.15862,-0.0772 0.32578,-0.17147 0.16716,-0.0943 0.39256,-0.22039 0.5009,-0.28017 0.41677,-0.22999 0.53175,-0.30587 0.53009,-0.34981 -9.4e-4,-0.025 -0.0187,-0.12527 -0.0394,-0.22277 -0.0207,-0.0975 -0.0639,-0.31909 -0.096,-0.49242 -0.0321,-0.17333 -0.086,-0.4481 -0.11979,-0.6106 -0.0338,-0.16249 -0.0763,-0.38408 -0.0944,-0.49241 -0.0443,-0.26491 -0.11265,-0.6142 -0.18218,-0.93138 -0.0316,-0.14393 -0.0574,-0.29609 -0.0574,-0.33813 0,-0.12187 -0.0426,-0.13341 -0.17968,-0.0487 -0.22927,0.1417 -0.58689,0.31265 -0.65511,0.31316 -0.0366,2.7e-4 -0.0761,0.0159 -0.0878,0.0347 -0.019,0.0308 -0.3477,0.0945 -0.49562,0.0961 -0.52545,0.005 -0.91929,-0.3166 -1.00456,-0.82148 -0.0145,-0.0856 -0.0446,-0.2153 -0.0669,-0.2881 -0.16957,-0.55336 0.47532,-2.13493 1.32742,-3.25546 0.33609,-0.44196 0.32823,-0.40036 0.19706,-1.04393 -0.0287,-0.14083 -0.0806,-0.40673 -0.11538,-0.5909 -0.30364,-1.6091 -0.41312,-2.12733 -0.44936,-2.127 -0.0144,1.4e-4 -0.0705,0.0234 -0.12467,0.0518 -0.13372,0.07 -0.69659,0.37662 -0.86666,0.47215 -0.0758,0.0426 -0.2531,0.13932 -0.39393,0.21495 -0.14083,0.0756 -0.27378,0.15078 -0.29545,0.16701 -0.0217,0.0162 -0.16348,0.0969 -0.31515,0.17922 -0.15166,0.0823 -0.32893,0.18106 -0.39393,0.21937 -0.065,0.0383 -0.20681,0.1147 -0.31515,0.16973 -0.10833,0.055 -0.30333,0.15957 -0.43332,0.2323 -0.4837,0.27063 -0.94727,0.52586 -1.00453,0.55308 -0.0325,0.0154 -0.0946,0.0495 -0.13788,0.0758 -0.14557,0.0881 -0.50989,0.29222 -0.78787,0.44136 -0.15166,0.0814 -0.29348,0.16142 -0.31514,0.17788 -0.0217,0.0165 -0.21564,0.12254 -0.43105,0.23574 -0.2154,0.11319 -0.45472,0.24552 -0.53181,0.29405 -0.0771,0.0485 -0.28726,0.1649 -0.46705,0.2586 -0.41696,0.21732 -0.43139,0.24874 -0.31609,0.68852 0.0227,0.0867 0.0564,0.24621 0.075,0.35454 0.0185,0.10833 0.059,0.32992 0.09,0.49242 0.031,0.1625 0.0767,0.40181 0.10148,0.53181 0.0248,0.13 0.0709,0.35412 0.10249,0.49805 0.0316,0.14393 0.0574,0.30675 0.0574,0.36183 0,0.0551 0.0181,0.14774 0.0402,0.20593 0.0221,0.0582 0.0575,0.21446 0.0787,0.34726 0.0212,0.1328 0.0659,0.3744 0.0996,0.5369 0.0336,0.1625 0.0765,0.38942 0.0955,0.50427 0.0189,0.11486 0.0536,0.29213 0.077,0.39394 0.0235,0.10181 0.0788,0.38897 0.12304,0.63813 0.0923,0.52012 0.13628,0.74366 0.21701,1.10301 0.0316,0.14083 0.0574,0.30365 0.0572,0.36183 -1.8e-4,0.0582 0.0193,0.15567 0.0433,0.21666 0.024,0.061 0.0574,0.20839 0.0742,0.32756 0.0307,0.21703 0.0735,0.44966 0.17768,0.96513 0.0306,0.15167 0.0842,0.42644 0.11906,0.6106 0.10483,0.55433 0.1761,0.91159 0.23688,1.18744 0.0317,0.14393 0.0577,0.29932 0.0577,0.34531 0,0.39382 0.11549,0.45131 0.48208,0.23995 z m 12.12378,-2.36299 c 0.42742,-0.048 0.96811,-0.17594 1.49695,-0.35423 0.48524,-0.1636 0.57604,-0.20143 1.22119,-0.50884 1.89458,-0.90274 4.32501,-3.06035 4.97636,-4.41775 0.0152,-0.0317 0.0806,-0.14622 0.14535,-0.25455 0.34436,-0.57617 0.65403,-1.32702 0.80422,-1.94997 0.0652,-0.27039 0.14848,-1.09787 0.11582,-1.1507 -0.0309,-0.0501 -0.0933,-0.0358 -0.0933,0.0214 0,0.43733 -1.46782,2.15099 -2.0043,2.34 -0.0351,0.0124 -0.0904,0.0443 -0.12294,0.0709 -0.54533,0.44646 -1.92845,0.81378 -2.50888,0.66631 -0.72097,-0.18319 -1.00905,-0.58049 -0.64115,-0.88423 0.74346,-0.61381 1.83323,-2.98924 1.90664,-4.156 0.0982,-1.56072 -0.80396,-2.81217 -2.20353,-3.05666 -0.10833,-0.0189 -0.27674,-0.0517 -0.37424,-0.0727 -0.45518,-0.0984 -1.4549,-0.0246 -2.18633,0.16145 -0.77018,0.1959 -0.69397,0.17209 -1.06957,0.33413 -0.0683,0.0295 -0.14385,0.0536 -0.16796,0.0536 -0.0241,0 -0.0746,0.0171 -0.11222,0.038 -0.0376,0.0209 -0.15704,0.0757 -0.26537,0.12167 -0.10834,0.046 -0.32525,0.14613 -0.48203,0.22247 -0.15678,0.0764 -0.30954,0.12941 -0.33948,0.11793 -0.0672,-0.0258 -0.0873,-0.10731 -0.27418,-1.11068 -0.25186,-1.35256 -0.2357,-1.31229 -0.4692,-1.16983 -0.071,0.0433 -0.22653,0.13126 -0.34569,0.19546 -0.11916,0.0642 -0.28757,0.157 -0.37424,0.2062 -0.0867,0.0492 -0.25507,0.1423 -0.37423,0.20688 -0.11917,0.0646 -0.30973,0.16854 -0.42348,0.23102 -0.11375,0.0625 -0.30875,0.16937 -0.43333,0.23753 -0.12458,0.0682 -0.35946,0.19865 -0.52196,0.28999 -0.1625,0.0913 -0.41954,0.23314 -0.5712,0.31513 -0.15167,0.082 -0.29792,0.16638 -0.325,0.18755 -0.0577,0.0451 -0.0654,0.27951 -0.0125,0.37842 0.0202,0.0378 0.0542,0.18284 0.0755,0.32241 0.0213,0.13957 0.0681,0.40444 0.10405,0.58861 0.10118,0.51864 0.16706,0.86471 0.2137,1.12271 0.12608,0.69734 0.13373,0.70936 0.3655,0.57377 2.20927,-1.29236 2.76114,1.38634 0.81289,3.94566 -0.20241,0.2659 -0.23466,0.33053 -0.21816,0.43717 0.0429,0.27687 0.11637,0.64912 0.16914,0.8565 0.0307,0.12058 0.0558,0.27454 0.0558,0.34212 0,0.0676 0.0184,0.17117 0.0408,0.23019 0.0224,0.059 0.0573,0.20642 0.0775,0.32756 0.0202,0.12114 0.0647,0.36207 0.0989,0.5354 0.0342,0.17333 0.0793,0.42151 0.10023,0.5515 0.0209,0.13 0.054,0.28955 0.0734,0.35454 0.0195,0.065 0.0467,0.19796 0.0605,0.29545 0.1649,1.16278 1.15504,2.04726 2.48339,2.21839 0.22512,0.029 1.22252,0.0213 1.51664,-0.0118 z"
         id="path30" /></g><path
       style="fill:none;stroke:none;stroke-width:0.264583px;stroke-linecap:butt;stroke-linejoin:miter;stroke-opacity:1"
       d="M 242.59925,337.03273 92.423431,296.79325 0,389.21668 V 297 l 242.59925,-0.20675 z"
       id="path69" /><text
       xml:space="preserve"
       transform="scale(0.26458333)"
       id="text70"
       style="font-size:42.6667px;line-height:1.25;font-family:Arial;-inkscape-font-specification:Arial;white-space:pre;shape-inside:url(#rect70);display:inline"><tspan
         x="1016.5234"
         y="1809.1777"
         id="tspan8"><tspan
           style="font-family:'Agency FB';-inkscape-font-specification:'Agency FB';fill:#ffffff"
           id="tspan4">Lorum impsum jada jada ja</tspan></tspan></text><rect
       style="fill:#ffffff;fill-opacity:1;stroke:none;stroke-width:0.211272;stroke-linejoin:round;stroke-dasharray:none;stroke-opacity:1"
       id="rect88"
       width="44.965504"
       height="5.4118371"
       x="452.92947"
       y="74.962822"
       ry="2.7059186"
       inkscape:transform-center-x="-26.464938"
       inkscape:transform-center-y="47.578365"
       transform="rotate(60.915527)" /><path
       style="fill:#00ffff;fill-opacity:1;stroke:none;stroke-width:0.564999;stroke-linejoin:round;stroke-dasharray:none;stroke-opacity:1"
       id="rect89"
       width="47.360416"
       height="73.025002"
       x="205.05208"
       y="510.9104"
       inkscape:path-effect="#path-effect89"
       sodipodi:type="rect"
       d="m 249.41939,509.47172 19.53557,20.2241 0,44.08157 L 249.50208,594 Z"
       transform="translate(0,-5.2916669)" /><path
       id="rect90"
       style="fill:#ffffff;stroke-width:0.564999;stroke-linejoin:round"
       d="m 244.87187,504.03122 3.9026,-0.69453 -0.33073,85.37163 h -3.57187 z"
       sodipodi:nodetypes="ccccc" /><path
       sodipodi:type="star"
       style="fill:#ffffff;fill-opacity:1;stroke:none;stroke-width:0.564999;stroke-linejoin:round;stroke-dasharray:none;stroke-opacity:1"
       id="path90"
       inkscape:flatsided="false"
       sodipodi:sides="8"
       sodipodi:cx="131.8833"
       sodipodi:cy="418.70444"
       sodipodi:r1="19.550764"
       sodipodi:r2="11.667919"
       sodipodi:arg1="1.570796"
       sodipodi:arg2="1.962144"
       inkscape:rounded="0"
       inkscape:randomized="0"
       d="m 131.88331,438.2552 -4.45056,-8.76499 -9.37392,3.03871 3.05076,-9.3448 -8.77705,-4.47968 8.76498,-4.45055 -3.0387,-9.37393 9.3448,3.05077 4.47967,-8.77706 4.45056,8.76499 9.37392,-3.03871 -3.05076,9.3448 8.77705,4.47968 -8.76498,4.45055 3.0387,9.37393 -9.3448,-3.05077 z"
       inkscape:transform-center-x="4.1479455e-06"
       inkscape:transform-center-y="-4.109047e-06"
       transform="rotate(-29.084469,175.39474,385.5915)" /><path
       sodipodi:type="star"
       style="fill:#00ffff;fill-opacity:1;stroke:none;stroke-width:0.564999;stroke-linejoin:round;stroke-dasharray:none;stroke-opacity:1"
       id="path90-9"
       inkscape:flatsided="false"
       sodipodi:sides="8"
       sodipodi:cx="131.8833"
       sodipodi:cy="418.70444"
       sodipodi:r1="19.550764"
       sodipodi:r2="4.4624305"
       sodipodi:arg1="1.570796"
       sodipodi:arg2="1.9634951"
       inkscape:rounded="0"
       inkscape:randomized="0"
       d="m 131.88331,438.2552 -1.70771,-15.42801 -12.11677,9.70173 9.70172,-12.11678 -15.42801,-1.7077 15.42801,-1.7077 -9.70173,-12.11678 12.11678,9.70173 1.70769,-15.42802 1.70771,15.42802 12.11677,-9.70174 -9.70172,12.11679 15.42801,1.70769 -15.42801,1.7077 9.70173,12.11678 -12.11678,-9.70173 z"
       inkscape:transform-center-y="3.3494086e-06"
       transform="matrix(0.41767166,-0.0416577,0.00759781,0.44161977,95.200917,256.26568)" /><rect
       style="fill:#ffffff;fill-opacity:1;stroke:none;stroke-width:0.564999;stroke-linejoin:round;stroke-dasharray:none;stroke-opacity:1"
       id="rect91"
       width="5.1917105"
       height="5.1917105"
       x="172.7296"
       y="471.3699"
       ry="2.5958552" /><rect
       style="fill:#ffffff;fill-opacity:1;stroke:none;stroke-width:0.564999;stroke-linejoin:round;stroke-dasharray:none;stroke-opacity:1"
       id="rect92"
       width="6.9222808"
       height="2.1816945"
       x="175.81657"
       y="473.2106"
       ry="1.0908473" /><rect
       style="fill:#ffffff;fill-opacity:1;stroke:none;stroke-width:0.936778;stroke-linejoin:round;stroke-dasharray:none;stroke-opacity:1"
       id="rect93"
       width="158.28497"
       height="67.797859"
       x="14.444621"
       y="507.45264"
       ry="1.8086426" /><g
       id="g1"
       inkscape:label="body text"
       style="display:inline;fill:#00a223;fill-opacity:1"><text
         xml:space="preserve"
         transform="matrix(0.26458333,0,0,0.26458333,0.65409959,-16.990025)"
         id="text14"
         style="font-size:37.3333px;line-height:1.25;font-family:Arial;-inkscape-font-specification:Arial;white-space:pre;shape-inside:url(#rect14);display:inline;fill:#00a223;fill-opacity:1"
         inkscape:label="Probleem body text"><tspan
           x="912.89648"
           y="1558.6289"
           id="tspan14"><tspan
             style="font-family:'Agency FB';-inkscape-font-specification:'Agency FB'"
             id="tspan12">All deze waardevolle gegevens staan in een enkel </tspan></tspan><tspan
           x="912.89648"
           y="1606.5443"
           id="tspan67"><tspan
             style="font-family:'Agency FB';-inkscape-font-specification:'Agency FB'"
             id="tspan32">bestand. Zonder grafieken, of nauwkeurige sorteer </tspan></tspan><tspan
           x="912.89648"
           y="1654.4597"
           id="tspan74"><tspan
             style="font-family:'Agency FB';-inkscape-font-specification:'Agency FB'"
             id="tspan70">middelen, waar een ecoloog via de telefoon bij kan.&#10;</tspan></tspan><tspan
           x="912.89648"
           y="1702.3751"
           id="tspan87"><tspan
             style="font-family:'Agency FB';-inkscape-font-specification:'Agency FB'"
             id="tspan75">Dit valt tegen, en daarom maken wij een VPS!</tspan></tspan></text><text
         xml:space="preserve"
         style="font-size:8.46667px;line-height:1.25;font-family:Arial;-inkscape-font-specification:Arial;display:inline;fill:#00a223;fill-opacity:1;stroke:#000000;stroke-width:0;stroke-dasharray:none;stroke-opacity:1"
         x="25.082485"
         y="231.83556"
         id="text20"
         transform="rotate(-17.930105)"
         inkscape:label="Ecologen footer"><tspan
           sodipodi:role="line"
           id="tspan20"
           style="font-style:normal;font-variant:normal;font-weight:normal;font-stretch:normal;font-size:8.46667px;font-family:'Agency FB';-inkscape-font-specification:'Agency FB';fill:#00a223;fill-opacity:1;stroke:#000000;stroke-width:0;stroke-dasharray:none;stroke-opacity:1"
           x="25.082485"
           y="231.83556">*Ecolgen zijn harde </tspan><tspan
           sodipodi:role="line"
           style="font-style:normal;font-variant:normal;font-weight:normal;font-stretch:normal;font-size:8.46667px;font-family:'Agency FB';-inkscape-font-specification:'Agency FB';fill:#00a223;fill-opacity:1;stroke:#000000;stroke-width:0;stroke-dasharray:none;stroke-opacity:1"
           x="25.082485"
           y="242.7021"
           id="tspan21">sezoen werkers. </tspan></text><text
         xml:space="preserve"
         style="font-size:8.46667px;line-height:1.25;font-family:Arial;-inkscape-font-specification:Arial;display:inline;fill:#00a223;fill-opacity:1;stroke:#000000;stroke-width:0;stroke-dasharray:none;stroke-opacity:1"
         x="0"
         y="246.71559"
         id="text23"
         inkscape:label="Ecologen body"><tspan
           sodipodi:role="line"
           id="tspan23"
           style="font-style:normal;font-variant:normal;font-weight:normal;font-stretch:normal;font-size:8.46667px;font-family:'Agency FB';-inkscape-font-specification:'Agency FB';fill:#00a223;fill-opacity:1;stroke:#000000;stroke-width:0;stroke-dasharray:none;stroke-opacity:1"
           x="0"
           y="246.71559">Omdat ze niet door het jaar heen werken*</tspan><tspan
           sodipodi:role="line"
           style="font-style:normal;font-variant:normal;font-weight:normal;font-stretch:normal;font-size:8.46667px;font-family:'Agency FB';-inkscape-font-specification:'Agency FB';fill:#00a223;fill-opacity:1;stroke:#000000;stroke-width:0;stroke-dasharray:none;stroke-opacity:1"
           x="0"
           y="257.58212"
           id="tspan24">Is de tijd van een ecoloog erg waardevol.</tspan><tspan
           sodipodi:role="line"
           style="font-style:normal;font-variant:normal;font-weight:normal;font-stretch:normal;font-size:8.46667px;font-family:'Agency FB';-inkscape-font-specification:'Agency FB';fill:#00a223;fill-opacity:1;stroke:#000000;stroke-width:0;stroke-dasharray:none;stroke-opacity:1"
           x="0"
           y="268.44867"
           id="tspan25">Het is van belang dat ze snel trends </tspan><tspan
           sodipodi:role="line"
           style="font-style:normal;font-variant:normal;font-weight:normal;font-stretch:normal;font-size:8.46667px;font-family:'Agency FB';-inkscape-font-specification:'Agency FB';fill:#00a223;fill-opacity:1;stroke:#000000;stroke-width:0;stroke-dasharray:none;stroke-opacity:1"
           x="0"
           y="279.31522"
           id="tspan26">kunnen opsporen, vergelijken. </tspan><tspan
           sodipodi:role="line"
           style="font-style:normal;font-variant:normal;font-weight:normal;font-stretch:normal;font-size:8.46667px;font-family:'Agency FB';-inkscape-font-specification:'Agency FB';fill:#00a223;fill-opacity:1;stroke:#000000;stroke-width:0;stroke-dasharray:none;stroke-opacity:1"
           x="0"
           y="290.18176"
           id="tspan27">En dan opslaan.</tspan></text><text
         xml:space="preserve"
         transform="matrix(0.26458333,0,0,0.26458333,146.39386,-85.743886)"
         id="text31"
         style="font-size:24px;line-height:0;font-family:Arial;-inkscape-font-specification:Arial;white-space:pre;shape-inside:url(#rect31);display:inline;fill:#00a223;fill-opacity:1"><tspan
           x="0"
           y="1289.0947"
           id="tspan90"><tspan
             style="line-height:0.75;font-family:'Agency FB';-inkscape-font-specification:'Agency FB'"
             id="tspan89">Er wordt gebruik gemaakt van sensoren </tspan></tspan><tspan
           x="0"
           y="1313.0947"
           id="tspan93"><tspan
             style="line-height:0.75;font-family:'Agency FB';-inkscape-font-specification:'Agency FB'"
             id="tspan91">om belangerijke data te verzamelen.</tspan><tspan
             style="line-height:1.25;font-family:'Agency FB';-inkscape-font-specification:'Agency FB'"
             id="tspan92">&#10;</tspan></tspan><tspan
           x="0"
           y="1343.0947"
           id="tspan95"><tspan
             style="line-height:1.25;font-family:'Agency FB';-inkscape-font-specification:'Agency FB'"
             id="tspan94"> Per verblijf:&#10;</tspan></tspan><tspan
           x="0"
           y="1373.0947"
           id="tspan97"><tspan
             style="line-height:1.25;font-family:'Agency FB';-inkscape-font-specification:'Agency FB'"
             id="tspan96">  Triple tempratuur sensoren.&#10;</tspan></tspan><tspan
           x="0"
           y="1403.0947"
           id="tspan99"><tspan
             style="line-height:1.25;font-family:'Agency FB';-inkscape-font-specification:'Agency FB'"
             id="tspan98">  Tempratuur sensor voor buiten.&#10;</tspan></tspan><tspan
           x="0"
           y="1433.0947"
           id="tspan101"><tspan
             style="line-height:1.25;font-family:'Agency FB';-inkscape-font-specification:'Agency FB'"
             id="tspan100">  Luchtvochtigheid sensoren.</tspan></tspan></text><text
         xml:space="preserve"
         transform="matrix(0.26458333,0,0,0.26458333,-225.26339,104.45415)"
         id="text14-6"
         style="font-size:37.3333px;line-height:1.25;font-family:Arial;-inkscape-font-specification:Arial;white-space:pre;shape-inside:url(#rect14-9);display:inline;fill:#00a223;fill-opacity:1"
         inkscape:label="Probleem body text"><tspan
           x="912.89648"
           y="1558.6289"
           id="tspan103"><tspan
             style="font-family:'Agency FB';-inkscape-font-specification:'Agency FB'"
             id="tspan102">Lorum least it's not some ai bs here and just a </tspan></tspan><tspan
           x="912.89648"
           y="1606.5443"
           id="tspan105"><tspan
             style="font-family:'Agency FB';-inkscape-font-specification:'Agency FB'"
             id="tspan104">place holder.</tspan></tspan></text><text
         xml:space="preserve"
         transform="matrix(0.41492951,0,0,0.41492951,-72.863871,-105.68315)"
         id="text2"
         style="font-size:24px;line-height:0;font-family:Arial;-inkscape-font-specification:Arial;white-space:pre;shape-inside:url(#rect4);display:inline;fill:#00a223;fill-opacity:1;stroke:#000000;stroke-width:0;stroke-dasharray:none;stroke-opacity:1"><tspan
           x="760.28125"
           y="654.72987"
           id="tspan107"><tspan
             style="line-height:1.05;font-family:'Agency FB';-inkscape-font-specification:'Agency FB'"
             id="tspan106">Vleermuizen zijn erg slimme, en daarom erg </tspan></tspan><tspan
           x="760.28125"
           y="679.92989"
           id="tspan109"><tspan
             style="line-height:1.05;font-family:'Agency FB';-inkscape-font-specification:'Agency FB'"
             id="tspan108">kieskeurige beesten. In winter houden ze van onze </tspan></tspan><tspan
           x="760.28125"
           y="705.1299"
           id="tspan111"><tspan
             style="line-height:1.05;font-family:'Agency FB';-inkscape-font-specification:'Agency FB'"
             id="tspan110">warme muren, die afkoelen tijdens de zomer...         </tspan></tspan><tspan
           x="760.28125"
           y="730.32991"
           id="tspan113"><tspan
             style="line-height:1.05;font-family:'Agency FB';-inkscape-font-specification:'Agency FB'"
             id="tspan112">Maar soms moeten deze muren weg!&#10;</tspan></tspan><tspan
           x="760.28125"
           y="755.52992"
           id="tspan115"><tspan
             style="line-height:1.05;font-family:'Agency FB';-inkscape-font-specification:'Agency FB'"
             id="tspan114">&#10;</tspan></tspan><tspan
           x="760.28125"
           y="780.72993"
           id="tspan117"><tspan
             style="line-height:1.05;font-family:'Agency FB';-inkscape-font-specification:'Agency FB'"
             id="tspan116">Waar gaan onze lieve vleermuizen dan heen?&#10;</tspan></tspan><tspan
           x="760.28125"
           y="805.92995"
           id="tspan119"><tspan
             style="line-height:1.05;font-family:'Agency FB';-inkscape-font-specification:'Agency FB'"
             id="tspan118">&#10;</tspan></tspan><tspan
           x="760.28125"
           y="831.12996"
           id="tspan121"><tspan
             style="line-height:1.05;font-family:'Agency FB';-inkscape-font-specification:'Agency FB'"
             id="tspan120">Hier is [bedrijf] hard mee bezig. En ze zijn all erg ver. </tspan></tspan><tspan
           x="760.28125"
           y="856.32997"
           id="tspan125"><tspan
             style="line-height:1.05;font-family:'Agency FB';-inkscape-font-specification:'Agency FB'"
             id="tspan122">Door betere verblijven te maken, </tspan><tspan
             style="font-weight:bold;font-stretch:condensed;font-family:'Agency FB';-inkscape-font-specification:'Agency FB Bold Condensed'"
             id="tspan123">VERHUIZEN </tspan><tspan
             style="line-height:1.05;font-family:'Agency FB';-inkscape-font-specification:'Agency FB'"
             id="tspan124">de </tspan></tspan><tspan
           x="760.28125"
           y="881.52998"
           id="tspan127"><tspan
             style="line-height:1.05;font-family:'Agency FB';-inkscape-font-specification:'Agency FB'"
             id="tspan126">vleermuizen zelf, naar deze superieure verblijven.&#10;</tspan></tspan><tspan
           x="760.28125"
           y="906.73"
           id="tspan129"><tspan
             style="line-height:1.05;font-family:'Agency FB';-inkscape-font-specification:'Agency FB'"
             id="tspan128">&#10;</tspan></tspan><tspan
           x="760.28125"
           y="931.93001"
           id="tspan131"><tspan
             style="line-height:1.05;font-family:'Agency FB';-inkscape-font-specification:'Agency FB'"
             id="tspan130">Toch ontsnapt van de laatvlieger, een moeilijk </tspan></tspan><tspan
           x="760.28125"
           y="957.13002"
           id="tspan133"><tspan
             style="line-height:1.05;font-family:'Agency FB';-inkscape-font-specification:'Agency FB'"
             id="tspan132">veeleisend dier, wat hun ideeale leef-omgeving inhoud. </tspan></tspan><tspan
           x="760.28125"
           y="982.33003"
           id="tspan135"><tspan
             style="line-height:1.05;font-family:'Agency FB';-inkscape-font-specification:'Agency FB'"
             id="tspan134">Ecologen van [bedrijf] zijn lang bezig geweest met </tspan></tspan><tspan
           x="760.28125"
           y="1007.53"
           id="tspan137"><tspan
             style="line-height:1.05;font-family:'Agency FB';-inkscape-font-specification:'Agency FB'"
             id="tspan136">informatie verzamelen. &#10;</tspan></tspan><tspan
           x="760.28125"
           y="1047.5273"
           id="tspan139"><tspan
             style="line-height:2.35"
             id="tspan138">      En het staat allemaal in 1 tabel, </tspan></tspan><tspan
           x="760.28125"
           y="1139.6619"
           id="tspan141"><tspan
             dx="0 13.347656 13.347656 13.347656 6.6679688 19.992188 5.3320312 12 7.9921875 13.347656 12 13.347656 6.6679688 6.6679688 6.6679688 16.007812 12 12 13.347656"
             style="line-height:2.35"
             id="tspan140">een Microsoft Excel</tspan></tspan></text></g></g><g
     inkscape:groupmode="layer"
     id="layer2"
     inkscape:label="Layer 2"
     style="display:inline"><g
       id="g71"
       transform="rotate(180,27.970162,357.70198)"
       style="display:inline"
       inkscape:label="vps vis"><path
         id="rect71"
         style="display:inline;fill:#ffffff;fill-opacity:1;stroke:none;stroke-width:0.040324;stroke-dasharray:none;stroke-opacity:1"
         d="M 43.591724,371.16451 V 359.63498 H 31.592973 v -1.29656 h 11.998751 v -4.2845 -1.29656 -4.28449 h -8.687325 v -1.29656 h 8.687325 v -4.2845 -1.29656 -4.28501 -3.43855 -2.1425 H 31.592973 v -1.29656 H 43.591724 V 318.9031 H 9.7286744 v 11.52953 H 21.727425 v 1.29656 H 9.7286744 v 4.28449 7.72356 3.43907 h 8.6873246 v 1.29656 H 9.7286744 v 4.28449 5.58106 H 21.727425 v 1.29656 H 9.7286744 v 11.52953 z M 28.202999,359.18436 h -3.0856 v -5.13044 h -8.98033 v -1.29656 h 8.98033 v -4.28449 -1.29656 -4.2845 h -8.98033 v -1.29656 h 8.98033 v -4.28501 h -8.98033 v -1.29656 h 20.753255 v 1.29656 h -8.687325 v 4.28501 h 8.687325 v 1.29656 h -8.687325 v 4.2845 1.29656 4.28449 h 8.687325 v 1.29656 h -8.687325 z" /></g><g
       id="g84"
       style="display:inline"
       inkscape:label="inno vis"
       transform="matrix(1.0703418,0,0,1.0703418,6.3572882,-49.45114)"><path
         d="m 94.790079,398.1444 v 26.85832 a 7.4083333,7.4083333 45 0 0 7.408331,7.40833 h 27.03866 a 7.4083333,7.4083333 135 0 0 7.40833,-7.40833 V 398.1444 a 7.4083333,7.4083333 45 0 0 -7.40833,-7.40833 h -27.03866 a 7.4083333,7.4083333 135 0 0 -7.408331,7.40833 z m 21.763011,0.20978 c 0.83199,0.0786 0.83199,0.0786 0.83199,0.0786 0.82527,0.13023 0.82527,0.13023 0.82527,0.13023 0.81546,0.18138 0.81546,0.18138 0.81546,0.18138 0.80253,0.23203 0.80253,0.23203 0.80253,0.23203 0.78652,0.28215 0.78652,0.28215 0.78652,0.28215 0.76687,0.33021 0.76687,0.33021 0.76687,0.33021 0.74466,0.37776 0.74466,0.37776 0.74466,0.37776 0.71934,0.42375 0.71934,0.42375 0.71934,0.42375 0.69091,0.46767 0.69091,0.46767 0.69091,0.46767 0.66043,0.51004 0.66043,0.51004 0.66043,0.51004 0.62683,0.55036 0.62683,0.55036 0.62683,0.55036 0.59118,0.58808 0.59118,0.58808 0.59118,0.58808 0.55242,0.62425 0.55242,0.62425 0.55242,0.62425 0.51211,0.65732 0.51211,0.65732 0.51211,0.65732 0.46974,0.68833 0.46974,0.68833 0.46974,0.68833 0.42582,0.71624 0.42582,0.71624 0.42582,0.71624 0.3793,0.74155 0.3793,0.74155 0.3793,0.74155 0.33177,0.76378 0.33177,0.76378 0.33177,0.76378 0.28318,0.7829 0.28318,0.7829 0.28318,0.7829 0.23306,0.79892 0.23306,0.79892 0.23306,0.79892 0.18242,0.81183 0.18242,0.81183 0.18242,0.81183 0.13074,0.82218 0.13074,0.82218 0.13074,0.82218 0.0785,0.82837 0.0785,0.82837 0.0785,0.82837 0.0264,0.83147 0.0264,0.83147 0.0264,0.83147 -0.20206,2.30012 -0.20206,2.30012 -0.20206,2.30012 -0.60048,2.22984 -0.60048,2.22984 -0.60048,2.22984 -0.97978,2.09289 -0.97978,2.09289 -0.97978,2.09289 -1.33016,1.89084 -1.33016,1.89084 -1.33016,1.89084 -1.63969,1.63298 -1.63969,1.63298 -1.63969,1.63298 -1.89911,1.32395 -1.89911,1.32395 -1.89911,1.32395 -2.10168,0.97565 -2.10168,0.97565 -2.10168,0.97565 -2.24017,0.5979 -2.24017,0.5979 -2.24017,0.5979 -2.30994,0.20102 -2.30994,0.20102 -2.30994,0.20102 -2.30993,-0.20102 -2.30993,-0.20102 -2.30993,-0.20102 -2.23966,-0.5979 -2.23966,-0.5979 -2.23966,-0.5979 -2.10168,-0.97565 -2.10168,-0.97565 -2.10168,-0.97565 -1.89911,-1.32395 -1.89911,-1.32395 -1.89911,-1.32395 -1.63969,-1.63298 -1.63969,-1.63298 -1.63969,-1.63298 -1.33015,-1.89084 -1.33015,-1.89084 -1.33015,-1.89084 -0.97979,-2.09289 -0.97979,-2.09289 -0.97979,-2.09289 -0.60048,-2.22984 -0.60048,-2.22984 -0.60048,-2.22984 -0.20205,-2.30012 -0.20205,-2.30012 -0.20205,-2.30012 0.20205,-2.30012 0.20205,-2.30012 0.20205,-2.30012 0.60048,-2.22983 0.60048,-2.22983 0.60048,-2.22983 0.97979,-2.0929 0.97979,-2.0929 0.97979,-2.0929 1.33015,-1.89084 1.33015,-1.89084 1.33015,-1.89084 1.63969,-1.63298 1.63969,-1.63298 1.63969,-1.63298 1.89911,-1.32395 1.89911,-1.32395 1.89911,-1.32395 2.10168,-0.97565 2.10168,-0.97565 2.10168,-0.97565 2.23966,-0.59789 2.23966,-0.59789 2.23966,-0.59789 2.30993,-0.20102 2.30993,-0.20102 2.30993,-0.20102 l 10e-6,-2e-5 z"
         style="fill:#ffffff;stroke-width:0.1"
         id="path73"
         inkscape:path-effect="#path-effect87"
         inkscape:original-d="m 94.790079,390.73607 v 41.67498 H 136.6454 v -41.67498 z m 20.927401,7.59231 a 13.302704,13.245273 0 0 1 0.83561,0.0258 13.302704,13.245273 0 0 1 0.83199,0.0786 13.302704,13.245273 0 0 1 0.82527,0.13023 13.302704,13.245273 0 0 1 0.81546,0.18138 13.302704,13.245273 0 0 1 0.80253,0.23203 13.302704,13.245273 0 0 1 0.78652,0.28215 13.302704,13.245273 0 0 1 0.76687,0.33021 13.302704,13.245273 0 0 1 0.74466,0.37776 13.302704,13.245273 0 0 1 0.71934,0.42375 13.302704,13.245273 0 0 1 0.69091,0.46767 13.302704,13.245273 0 0 1 0.66043,0.51004 13.302704,13.245273 0 0 1 0.62683,0.55036 13.302704,13.245273 0 0 1 0.59118,0.58808 13.302704,13.245273 0 0 1 0.55242,0.62425 13.302704,13.245273 0 0 1 0.51211,0.65732 13.302704,13.245273 0 0 1 0.46974,0.68833 13.302704,13.245273 0 0 1 0.42582,0.71624 13.302704,13.245273 0 0 1 0.3793,0.74155 13.302704,13.245273 0 0 1 0.33177,0.76378 13.302704,13.245273 0 0 1 0.28318,0.7829 13.302704,13.245273 0 0 1 0.23306,0.79892 13.302704,13.245273 0 0 1 0.18242,0.81183 13.302704,13.245273 0 0 1 0.13074,0.82218 13.302704,13.245273 0 0 1 0.0785,0.82837 13.302704,13.245273 0 0 1 0.0264,0.83147 13.302704,13.245273 0 0 1 -0.20206,2.30012 13.302704,13.245273 0 0 1 -0.60048,2.22984 13.302704,13.245273 0 0 1 -0.97978,2.09289 13.302704,13.245273 0 0 1 -1.33016,1.89084 13.302704,13.245273 0 0 1 -1.63969,1.63298 13.302704,13.245273 0 0 1 -1.89911,1.32395 13.302704,13.245273 0 0 1 -2.10168,0.97565 13.302704,13.245273 0 0 1 -2.24017,0.5979 13.302704,13.245273 0 0 1 -2.30994,0.20102 13.302704,13.245273 0 0 1 -2.30993,-0.20102 13.302704,13.245273 0 0 1 -2.23966,-0.5979 13.302704,13.245273 0 0 1 -2.10168,-0.97565 13.302704,13.245273 0 0 1 -1.89911,-1.32395 13.302704,13.245273 0 0 1 -1.63969,-1.63298 13.302704,13.245273 0 0 1 -1.33015,-1.89084 13.302704,13.245273 0 0 1 -0.97979,-2.09289 13.302704,13.245273 0 0 1 -0.60048,-2.22984 13.302704,13.245273 0 0 1 -0.20205,-2.30012 13.302704,13.245273 0 0 1 0.20205,-2.30012 13.302704,13.245273 0 0 1 0.60048,-2.22983 13.302704,13.245273 0 0 1 0.97979,-2.0929 13.302704,13.245273 0 0 1 1.33015,-1.89084 13.302704,13.245273 0 0 1 1.63969,-1.63298 13.302704,13.245273 0 0 1 1.89911,-1.32395 13.302704,13.245273 0 0 1 2.10168,-0.97565 13.302704,13.245273 0 0 1 2.23966,-0.59789 13.302704,13.245273 0 0 1 2.30993,-0.20102 z" /><rect
         style="fill:#ffffff;fill-opacity:1;stroke:none;stroke-width:0.1;stroke-dasharray:none;stroke-opacity:1"
         id="rect74"
         width="20.92766"
         height="7.2902265"
         x="139.39795"
         y="425.12082" /><rect
         style="fill:#ffffff;fill-opacity:1;stroke:none;stroke-width:0.0526351;stroke-dasharray:none;stroke-opacity:1"
         id="rect74-9"
         width="19.836254"
         height="2.1308515"
         x="139.39795"
         y="422.41943" /><rect
         style="fill:#ffffff;fill-opacity:1;stroke:none;stroke-width:0.0526351;stroke-dasharray:none;stroke-opacity:1"
         id="rect74-9-5"
         width="19.836254"
         height="2.1308515"
         x="139.39795"
         y="419.71805" /><rect
         style="fill:#ffffff;fill-opacity:1;stroke:none;stroke-width:0.0526351;stroke-dasharray:none;stroke-opacity:1"
         id="rect74-9-7"
         width="19.836254"
         height="2.1308515"
         x="139.39795"
         y="417.01666" /><rect
         style="fill:#ffffff;fill-opacity:1;stroke:none;stroke-width:0.0526351;stroke-dasharray:none;stroke-opacity:1"
         id="rect74-9-0"
         width="19.836254"
         height="2.1308515"
         x="139.39795"
         y="414.31528" /><rect
         style="fill:#ffffff;fill-opacity:1;stroke:none;stroke-width:0.0526351;stroke-dasharray:none;stroke-opacity:1"
         id="rect74-9-5-6"
         width="19.836254"
         height="2.1308515"
         x="139.39795"
         y="411.61389" /><rect
         style="fill:#ffffff;fill-opacity:1;stroke:none;stroke-width:0.0526351;stroke-dasharray:none;stroke-opacity:1"
         id="rect74-9-7-0"
         width="19.836254"
         height="2.1308515"
         x="139.39795"
         y="408.91251" /><path
         id="rect74-9-7-0-7"
         style="fill:#ffffff;stroke-width:0.104011"
         transform="rotate(-90)"
         d="m -425.84454,139.39795 h 23.05851 v 2.82538 l -2.9799,4.33255 h -20.07861 z"
         sodipodi:nodetypes="cccccc" /><ellipse
         style="fill:#ffffff;fill-opacity:1;stroke:none;stroke-width:0.1;stroke-dasharray:none;stroke-opacity:1"
         id="path74"
         cx="115.71774"
         cy="411.57355"
         rx="1.5588231"
         ry="1.5956281" /><path
         style="fill:#ffffff;fill-opacity:1;stroke:none;stroke-width:0.0315765;stroke-dasharray:none;stroke-opacity:1"
         id="path74-4"
         inkscape:path-effect="#path-effect75"
         sodipodi:type="arc"
         sodipodi:cx="115.71774"
         sodipodi:cy="411.57355"
         sodipodi:rx="0.49222153"
         sodipodi:ry="0.50384331"
         d="m 116.20996,411.57355 c 0,0.27826 -0.22037,0.50384 -0.49222,0.50384 -0.27184,0 -0.49222,-0.22558 -0.49222,-0.50384 0,-0.27827 0.22038,-0.50385 0.49222,-0.50385 0.27185,0 0.49222,0.22558 0.49222,0.50385 z m -5.66252,1.26006 c 0.13913,0.24098 0.0611,0.54652 -0.17436,0.68245 -0.23543,0.13592 -0.53907,0.0507 -0.6782,-0.19023 -0.13913,-0.24099 -0.0611,-0.54653 0.17436,-0.68245 0.23542,-0.13593 0.53906,-0.0508 0.6782,0.19023 z m -4.27387,3.9225 c 0.24098,0.13913 0.32615,0.44277 0.19023,0.6782 -0.13592,0.23543 -0.44147,0.31349 -0.68245,0.17435 -0.24099,-0.13913 -0.32616,-0.44277 -0.19023,-0.67819 0.13592,-0.23543 0.44147,-0.31349 0.68245,-0.17436 z m -1.74002,5.53393 c 0.27826,0 0.50384,0.22037 0.50384,0.49222 0,0.27184 -0.22558,0.49222 -0.50384,0.49222 -0.27827,0 -0.50385,-0.22038 -0.50385,-0.49222 0,-0.27185 0.22558,-0.49222 0.50385,-0.49222 z m 1.26006,5.66252 c 0.24098,-0.13913 0.54652,-0.0611 0.68245,0.17436 0.13592,0.23543 0.0507,0.53907 -0.19023,0.6782 -0.24099,0.13913 -0.54653,0.0611 -0.68245,-0.17436 -0.13593,-0.23542 -0.0508,-0.53906 0.19023,-0.6782 z m 3.9225,4.27387 c 0.13913,-0.24098 0.44277,-0.32615 0.6782,-0.19023 0.23543,0.13592 0.31349,0.44147 0.17435,0.68245 -0.13913,0.24099 -0.44277,0.32616 -0.67819,0.19023 -0.23543,-0.13592 -0.31349,-0.44147 -0.17436,-0.68245 z m 5.53393,1.74002 c 0,-0.27826 0.22037,-0.50384 0.49222,-0.50384 0.27184,0 0.49222,0.22558 0.49222,0.50384 0,0.27827 -0.22038,0.50385 -0.49222,0.50385 -0.27185,0 -0.49222,-0.22558 -0.49222,-0.50385 z m 5.66252,-1.26006 c -0.13913,-0.24098 -0.0611,-0.54652 0.17436,-0.68245 0.23543,-0.13592 0.53907,-0.0507 0.6782,0.19023 0.13913,0.24099 0.0611,0.54653 -0.17436,0.68245 -0.23542,0.13593 -0.53906,0.0508 -0.6782,-0.19023 z m 4.27387,-3.9225 c -0.24098,-0.13913 -0.32615,-0.44277 -0.19023,-0.6782 0.13592,-0.23543 0.44147,-0.31349 0.68245,-0.17435 0.24099,0.13913 0.32616,0.44277 0.19023,0.67819 -0.13592,0.23543 -0.44147,0.31349 -0.68245,0.17436 z m 1.74002,-5.53393 c -0.27826,0 -0.50384,-0.22037 -0.50384,-0.49222 0,-0.27184 0.22558,-0.49222 0.50384,-0.49222 0.27827,0 0.50385,0.22038 0.50385,0.49222 0,0.27185 -0.22558,0.49222 -0.50385,0.49222 z m -1.26006,-5.66252 c -0.24098,0.13913 -0.54652,0.0611 -0.68245,-0.17436 -0.13592,-0.23543 -0.0508,-0.53907 0.19023,-0.6782 0.24099,-0.13913 0.54653,-0.0611 0.68245,0.17436 0.13593,0.23542 0.0508,0.53906 -0.19023,0.6782 z m -3.9225,-4.27387 c -0.13913,0.24098 -0.44277,0.32615 -0.6782,0.19023 -0.23543,-0.13592 -0.31349,-0.44147 -0.17435,-0.68245 0.13913,-0.24099 0.44277,-0.32616 0.67819,-0.19023 0.23543,0.13592 0.31349,0.44147 0.17436,0.68245 z"
         transform="translate(-2.9199219e-6,-11.660871)" /><path
         style="fill:none;stroke:#ffffff;stroke-width:0.533947;stroke-linecap:butt;stroke-linejoin:round;stroke-dasharray:none;stroke-opacity:1"
         d="m 115.71774,411.57355 v -9.96434"
         id="path75" /><path
         style="fill:none;stroke:#ffffff;stroke-width:0.43228;stroke-linecap:butt;stroke-linejoin:round;stroke-dasharray:none;stroke-opacity:1"
         d="m 115.54331,411.38637 5.65604,-3.26551"
         id="path75-7" /></g><text
       xml:space="preserve"
       transform="scale(0.26458333)"
       id="text86"
       style="font-size:37.3333px;line-height:1.15;font-family:Arial;-inkscape-font-specification:Arial;white-space:pre;shape-inside:url(#rect87);display:inline"><tspan
         x="434.16406"
         y="1283.9849"
         id="tspan143"><tspan
           style="font-family:'Agency FB';-inkscape-font-specification:'Agency FB';fill:#ffffff"
           id="tspan142">Inno flux is een time series </tspan></tspan><tspan
         x="434.16406"
         y="1328.167"
         id="tspan145"><tspan
           style="font-family:'Agency FB';-inkscape-font-specification:'Agency FB';fill:#ffffff"
           id="tspan144">database. Alle gevens zitten dus </tspan></tspan><tspan
         x="434.16406"
         y="1372.3491"
         id="tspan147"><tspan
           style="font-family:'Agency FB';-inkscape-font-specification:'Agency FB';fill:#ffffff"
           id="tspan146">meteen gekoppeld aan een tijdstip&#10;</tspan></tspan><tspan
         x="434.16406"
         y="1440.6802"
         id="tspan149"><tspan
           dx="0 12.578115 14.145822 12.359365 14.109364 21.765602 7.3098907 6.6536407 14.072906 13.398422 14.10936"
           style="font-family:'Agency FB';-inkscape-font-specification:'Agency FB';fill:#ffffff"
           id="tspan148">Lorum ipsum</tspan></tspan></text></g></svg>
